<svg xmlns="http://www.w3.org/2000/svg" width="246" height="160" fill="none" viewBox="0 0 246 160">
    <path fill="#949CDC" fill-rule="evenodd" d="M1.5 0H0v4.433h3V3h1.556V0H1.5zm9.169 3h6.112V0H10.67v3zm12.225 0h6.112V0h-6.112v3zm12.225 0h6.112V0H35.12v3zm12.225 0h6.112V0h-6.112v3zm12.225 0h6.112V0H59.57v3zm12.225 0h6.112V0h-6.112v3zm12.225 0h6.112V0H84.02v3zm12.225 0h6.112V0h-6.112v3zm12.225 0h6.112V0h-6.112v3zm12.225 0h6.112V0h-6.112v3zm12.225 0h6.112V0h-6.112v3zm12.225 0h6.112V0h-6.112v3zm12.225 0h6.112V0h-6.112v3zm12.225 0h6.112V0h-6.112v3zm12.225 0h6.112V0h-6.112v3zm12.225 0h6.112V0h-6.112v3zm12.225 0h6.112V0h-6.112v3zm12.225 0h6.112V0h-6.112v3zm12.225 0h6.112V0h-6.112v3zm12.225 0H246V0h-3.056v3zM3 16.163v-5.865H0v5.865h3zm0 11.731V22.03H0v5.865h3zm0 11.731V33.76H0v5.865h3zm0 11.73V45.49H0v5.866h3zm0 11.732V57.22H0v5.866h3zm0 11.73v-5.865H0v5.865h3zm0 11.731v-5.865H0v5.865h3zm0 11.73v-5.865H0v5.866h3zm0 11.732v-5.866H0v5.866h3zm0 11.73v-5.865H0v5.865h3zm0 11.731v-5.865H0v5.865h3zm0 11.731v-5.865H0v5.865h3zm0 5.865v1.433h1.446v3H0v-4.433h3zm13.232 1.433H10.34v3h5.893v-3zm11.786 0h-5.893v3h5.893v-3zm11.786 0H33.91v3h5.893v-3zm11.785 0h-5.893v3h5.893v-3zm11.786 0h-5.893v3h5.893v-3z" clip-rule="evenodd"/>
    <path stroke="#949CDC" stroke-width="3" d="M57.5 148.5L65 154l-7.5 4.5"/>
</svg>
