<svg width="521" height="358" viewBox="0 0 521 358" fill="none" xmlns="http://www.w3.org/2000/svg">
<g clip-path="url(#clip0)">
<path opacity="0.36" d="M20.114 351.269L184.236 357.995H184.656L446.466 351.124C447.787 351.107 449.064 350.651 450.098 349.829C451.131 349.006 451.862 347.863 452.176 346.579L452.983 343.026C453.812 339.391 450.917 335.961 447.064 335.994L20.3454 339.687C19.7206 339.693 19.1002 339.793 18.5051 339.983V339.983C12.1339 342.013 13.4415 350.995 20.114 351.269Z" fill="#EFEFEF"/>
<path d="M135.947 174.054C135.839 173.92 135.712 173.803 135.571 173.704C134.242 172.875 133.058 173.241 131.556 172.811C130.889 172.617 130.373 170.904 129.275 171.857C128.871 172.207 128 173.214 127.122 173.968C125.874 175.072 123.63 175.724 121.741 175.907C114.359 176.634 106.981 175.33 99.722 173.807C99.3008 173.751 98.8988 173.596 98.549 173.354C97.9624 172.875 97.8871 172.024 97.844 171.265C97.6415 167.756 97.1137 164.274 96.2674 160.862C95.514 157.82 94.4647 154.767 92.5007 152.349C90.5366 149.932 87.4102 148.236 84.3053 148.623C83.1373 148.778 82.0228 149.208 81.0535 149.879C80.0843 150.549 79.2881 151.44 78.7305 152.479C76.04 157.632 81.421 164.195 83.8102 168.573C86.0687 172.718 88.6148 176.7 91.4298 180.489C91.7478 180.979 92.1614 181.401 92.6459 181.727C93.205 182.001 93.8157 182.153 94.4378 182.174C102.398 182.908 110.391 183.209 118.384 183.073C120.59 183.073 122.505 181.894 124.545 181.9C125.847 181.9 126.864 182.842 128.091 183.122C129.441 183.398 130.827 183.442 132.191 183.251C134.613 182.869 135.775 180.618 136.986 178.755C137.279 178.381 137.464 177.934 137.524 177.463C137.599 176.623 137.163 175.928 136.755 175.228C136.524 174.812 136.254 174.419 135.947 174.054Z" fill="#EAC5B0"/>
<path d="M80.856 169.677C83.1967 172.024 85.7635 174.108 87.5984 177.043C88.8737 179.083 89.9392 181.41 91.9517 182.729C93.5176 183.757 95.4494 184.032 97.3328 184.231C98.8 184.389 100.273 184.516 101.751 184.613L103.995 174.227C102.594 173.668 101.101 173.376 99.5928 173.365C97.887 162.666 96.7516 151.924 95.1588 141.214C94.4431 136.4 93.6629 131.414 90.9993 127.344C85.3169 118.642 71.8803 121.205 70.6804 131.894C69.7387 140.24 70.9817 148.839 73.7637 156.738C74.9798 160.195 76.4542 164.486 78.7735 167.356C79.4256 168.166 80.1207 168.941 80.856 169.677V169.677Z" fill="#A468DE"/>
<path d="M33.6262 332.967C31.9473 333.08 30.3975 332.488 28.7832 332.305C28.8513 326.598 29.5022 320.913 30.7258 315.339C33.2602 318.155 35.3912 316.518 35.3051 321.8C35.2728 323.518 33.2925 330.361 33.6262 332.967Z" fill="#E5D1BD"/>
<path d="M28.4063 329.441C26.4961 328.757 26.0656 333.323 26.0494 334.4C26.0951 335.044 26.0626 335.691 25.9526 336.327C25.7233 337.002 25.3569 337.621 24.8764 338.147L22.0997 341.642C21.6498 342.142 21.2861 342.713 21.0235 343.333C20.4854 344.894 21.384 346.746 22.8638 347.495C27.9974 350.09 32.6843 343.806 33.7928 339.66C33.965 339.025 34.0887 338.379 34.2125 337.733C34.4708 336.397 35.4824 333.479 34.9497 332.176C34.3309 330.652 32.4583 331.756 31.2314 331.18C30.1068 330.647 29.1812 329.715 28.4063 329.441Z" fill="#1A3151"/>
<path d="M64.8633 238.076C60.0796 251.107 54.5586 263.852 51.4107 277.496C47.5202 294.35 41.2512 310.783 38.0334 327.669C35.9526 327.737 33.8697 327.649 31.8021 327.405C29.4344 327.125 25.6731 326.484 24.8067 323.9C24.3708 322.575 24.8067 320.427 24.8982 319.054C25.1134 314.655 25.4363 310.256 25.7484 305.862C26.6632 293.429 27.2928 280.845 29.5743 268.59C31.9797 255.7 34.2828 242.745 36.3975 229.87C37.4737 223.21 38.8351 216.587 40.4925 210.039C40.9176 208.354 45.3624 190.967 46.2341 191.107C56.4957 192.699 66.3586 196.239 75.2918 201.537C76.169 202.075 77.0138 202.678 77.3205 203.605C77.6272 204.531 77.3474 205.328 77.0676 206.168C74.3771 214.18 70.7825 221.696 67.9198 229.676C66.9243 232.449 65.9073 235.222 64.8633 238.076Z" fill="#1A3151"/>
<path d="M65.7617 332.03C67.333 332.639 68.9904 332.531 70.6047 332.838C72.2308 327.372 73.2946 321.754 73.7795 316.071C70.524 318.004 68.9742 315.807 67.4837 320.879C66.9994 322.532 66.8541 329.64 65.7617 332.03Z" fill="#E5D1BD"/>
<path d="M72.2356 331.18C72.2356 334.303 74.6947 337.641 76.0562 340.473C76.3177 340.859 76.4302 341.327 76.3728 341.789C76.3154 342.252 76.0919 342.678 75.7441 342.988C75.3618 343.642 74.802 344.174 74.1297 344.523C73.4137 344.738 72.6503 344.738 71.9343 344.523C70.7181 344.257 69.5164 343.936 68.3289 343.559C68.0274 343.483 67.7428 343.351 67.4895 343.171C67.2216 342.919 67.0106 342.612 66.8707 342.272C66.0312 340.581 65.3209 339.386 65.364 337.507C65.407 335.627 65.6545 333.549 65.2994 331.627C65.1218 330.695 64.8904 329.473 65.6922 328.988C66.311 328.59 67.4411 329.139 68.1137 329.247C69.3029 329.441 70.4007 329.365 71.493 329.99C71.7223 330.106 71.9199 330.276 72.0688 330.485C72.1869 330.697 72.2446 330.937 72.2356 331.18V331.18Z" fill="#1A3151"/>
<path d="M64.142 232.137C64.8361 246.002 66.2944 259.813 65.2666 273.775C63.9698 291.006 65.0729 308.576 63.1142 325.661C65.0799 326.349 67.0945 326.889 69.141 327.276C71.4871 327.712 75.2646 328.224 76.8521 326.005C77.6646 324.875 77.8583 322.683 78.2027 321.348C79.3058 317.083 80.3121 312.792 81.313 308.5C84.1326 296.358 87.2752 284.157 88.7388 271.778C90.2778 258.753 91.9244 245.717 93.7325 232.778C94.6688 226.09 95.3468 219.37 95.7181 212.629C95.8096 210.89 96.7351 192.97 95.8634 192.846C85.594 191.314 75.1266 191.76 65.0245 194.16C64.0344 194.397 63.0389 194.736 62.4739 195.528C61.9088 196.319 61.9358 197.143 61.9358 198.053C62.1295 206.507 63.3241 214.745 63.6954 223.226C63.8514 226.149 63.9913 229.106 64.142 232.137Z" fill="#1A3151"/>
<path d="M58.3194 120.872L57.8136 121.055C55.0262 122.131 52.6586 124.016 50.3393 125.901C46.8578 128.717 45.1412 129.95 43.8013 134.117C42.6223 138.055 41.6842 142.062 40.9924 146.114C37.0481 166.672 36.2894 187.149 33.4589 207.864C32.6894 213.501 32.0921 220.13 36.2625 224.017C43.656 218.261 52.9437 217.927 61.9194 217.917C68.2152 217.917 74.3765 215.87 80.6885 216.576C86.7207 217.249 91.9887 215.741 98.1124 216.14C99.5868 216.237 101.47 216.22 102.051 214.858C99.9312 208.504 99.9689 201.666 99.4899 194.984C98.2469 177.7 92.5269 161.11 90.2184 143.944C89.4327 138.107 89.013 128.421 84.4983 124.021C79.5908 119.224 68.3928 119.122 62.0862 120.064C60.8092 120.221 59.5486 120.491 58.3194 120.872V120.872Z" fill="#A468DE"/>
<path d="M74.4259 140.137L71.9721 138.473L76.9281 133.509C77.6601 132.862 78.2627 132.082 78.7039 131.21C79.0537 130.206 79.1876 129.14 79.0967 128.081C79.1598 126.616 78.9368 125.153 78.4402 123.774C77.364 121.324 73.6833 119.951 71.1596 120.069C68.3991 120.198 65.6978 121.351 63.2333 122.514C62.4214 122.849 61.6718 123.318 61.0163 123.903C59.6549 125.244 59.402 127.414 59.9024 129.255C60.4029 131.097 61.5975 132.674 62.8297 134.139C64.062 135.604 65.3857 137.014 66.2844 138.705L59.6334 142.517C59.332 142.69 59.0038 142.9 58.9338 143.239C58.9107 143.566 59.0148 143.891 59.2244 144.143C61.5436 147.794 64.2288 152.726 64.2557 157.12C64.2826 162.478 64.7669 167.889 64.9821 173.241C65.4306 184.412 65.5687 195.591 65.3965 206.776C65.357 209.346 65.2996 211.916 65.2243 214.487C68.0926 214.667 70.9704 214.635 73.834 214.39C74.4568 214.407 75.0679 214.218 75.5721 213.851C76.1102 213.313 76.1801 212.505 76.2017 211.751C76.2483 209.881 76.2626 208.009 76.2447 206.135C76.1479 195.102 75.0716 184.113 74.5282 173.101C74.0654 163.738 72.7901 152.678 78.9299 144.779C79.1423 144.56 79.2799 144.279 79.3227 143.976C79.3227 143.519 78.9083 143.18 78.5317 142.9L74.4259 140.137Z" fill="white"/>
<path d="M65.1533 121.119C65.265 121.333 65.4104 121.528 65.5838 121.695C66.3449 122.401 67.3091 122.847 68.3389 122.972C69.6779 123.099 71.0288 123.005 72.337 122.691C74.1181 122.352 74.0535 121.308 74.3118 119.692C74.4517 118.809 74.5432 117.915 74.6078 117C74.6455 116.51 74.4571 114.76 74.7692 114.416C74.9791 114.184 75.8454 114.259 76.2167 114.066C76.8051 113.717 77.2986 113.229 77.6535 112.644C78.1913 111.715 78.5987 110.717 78.8642 109.677L80.4785 104.325C81.0948 102.521 81.5275 100.659 81.77 98.7681C82.039 95.9089 81.5763 91.8759 79.4185 89.7814C77.449 87.8753 74.5755 87.2076 71.9496 86.8683C68.4465 86.3815 64.8822 87.1032 61.8439 88.9145C60.5654 89.6403 59.5016 90.6918 58.7606 91.9621C57.6521 94.019 57.7382 96.582 57.8565 98.962L58.1848 105.601C58.3086 108.148 58.626 111.082 60.5363 112.461C61.548 113.193 62.8717 113.349 63.765 114.292C64.8412 115.471 64.782 117.237 64.8412 118.729C64.8573 119.612 64.7927 120.419 65.1533 121.119Z" fill="#EAC5B0"/>
<path d="M76.1847 92.5059C76.3036 92.7114 76.4027 92.9278 76.4806 93.1521C76.8842 94.3259 76.6098 95.6505 77.0187 96.8297C77.6483 98.6981 79.8223 99.8181 80.1505 101.756C80.4196 103.345 79.3326 104.853 79.2411 106.463C79.1389 108.218 80.2635 109.882 80.0913 111.616C79.8052 113.364 79.1182 115.023 78.0842 116.462C78.364 116.09 80.8823 116.219 81.5334 115.821C82.5343 115.207 82.6473 114.825 82.9487 113.78C83.25 112.736 83.0132 111.723 83.4868 110.657C84.0518 109.354 85.2141 108.396 85.6392 107.006C86.1773 105.111 85.1872 103.108 85.2625 101.137C85.3809 98.1489 87.9531 95.3328 87.0275 92.4951C86.4894 90.8313 84.8751 89.7652 83.9495 88.2629C83.2608 87.1214 83.0025 85.7807 82.5236 84.5368C82.0446 83.293 81.2213 82.0492 79.946 81.6723C79.2173 81.5486 78.4827 81.4623 77.7452 81.4138C76.486 81.1823 75.4421 80.3369 74.2313 79.9008C72.4986 79.3139 69.4422 81.0692 68.4306 82.5392C67.4189 84.0091 67.9355 85.2314 68.9687 86.5291C70.6583 88.6614 74.7748 90.0667 76.1847 92.5059Z" fill="#1A3151"/>
<path d="M52.8527 83.6807C51.8141 84.4453 50.5334 84.9945 49.5863 85.8829C47.7353 87.6221 47.3855 90.3952 47.3209 92.9313C47.2617 95.1874 46.2716 97.1958 46.5191 99.5488C46.5691 100.344 46.7833 101.12 47.1482 101.828C47.5131 102.536 48.0208 103.161 48.6393 103.663C50.2536 104.826 52.7558 105.014 53.4822 106.861C54.2571 108.864 52.18 111.389 53.4446 113.134C54.1387 114.092 55.5001 114.211 56.4956 114.879C57.6041 115.6 58.1745 116.887 58.8525 118.023C59.5305 119.159 60.5476 120.295 61.8713 120.328C61.9251 118.314 61.9843 116.72 61.1233 114.879C60.6229 113.802 59.1485 111.831 60.2839 110.668C60.9996 109.704 62.6839 109.392 62.7269 108.191C62.6592 107.629 62.4207 107.1 62.0435 106.678C61.4684 105.747 61.1226 104.693 61.0346 103.602C60.9467 102.512 61.1191 101.416 61.5377 100.405C62.4066 98.3787 63.9908 96.7437 65.9878 95.812C68.2855 94.6974 67.9196 94.1374 68.5869 91.9297C69.2003 89.8998 70.3519 89.4259 72.1761 88.699C73.7904 88.0367 74.3285 87.6221 74.9473 86.0876C75.3885 84.9676 75.932 83.6214 75.2917 82.3669C74.705 81.4094 73.9128 80.5946 72.9724 79.9815C71.116 78.5654 69.0281 77.0739 66.6981 77.2408C65.4067 77.3323 64.1852 77.9408 62.8937 78.0162C62.0274 78.0646 61.1718 77.8762 60.3054 77.8439C58.7955 77.7934 57.311 78.2419 56.0813 79.12C54.8759 80.0084 54.9136 80.9346 54.241 82.1892C53.8983 82.786 53.4233 83.2963 52.8527 83.6807V83.6807Z" fill="#1A3151"/>
<path d="M58.0672 75.3831C58.2932 73.9832 58.1479 72.1524 56.8081 71.6786C56.0762 71.4201 55.2529 71.6786 54.4888 71.5494C52.8745 71.2209 52.3364 69.2502 51.4593 67.8287C51.3499 67.6015 51.1733 67.4135 50.9535 67.2902C50.61 67.1966 50.2477 67.1966 49.9041 67.2902C48.2898 67.4895 47.0576 65.8903 45.5401 65.3141C44.5804 64.9893 43.531 65.0593 42.6228 65.5086C41.7145 65.958 41.0219 66.7499 40.6972 67.7102C40.4658 68.5071 40.5034 69.3579 40.2882 70.1602C39.4003 73.3909 34.665 74.7747 34.5412 78.1292C34.4605 80.3961 36.6936 82.5661 35.8165 84.666C35.2784 86.0068 33.5403 86.9222 33.7394 88.3598C33.847 88.815 34.1103 89.2182 34.4838 89.4995C34.8573 89.7808 35.3173 89.9224 35.7842 89.8998C36.722 89.8245 37.6037 89.4224 38.2757 88.7637C39.3896 87.7891 40.229 86.5399 41.2944 85.533C42.3599 84.526 43.7751 83.6645 45.2442 83.8476C46.7132 84.0307 47.9347 85.1345 49.366 84.8976C50.4961 84.7091 51.3355 83.6968 52.4494 83.4115C53.5633 83.1261 54.5695 83.5514 55.6404 83.6161C56.7112 83.6807 58.0242 83.1207 58.0565 82.0492C58.0191 81.7921 58.0191 81.5309 58.0565 81.2738C58.2825 80.5792 59.4663 80.6223 59.6708 79.9277C59.1327 79.0662 58.3255 79.3892 57.9219 78.2477C57.669 77.4131 57.9273 76.2877 58.0672 75.3831Z" fill="#1A3151"/>
<path d="M190.974 96.5497C189.693 99.355 187.595 101.692 185.889 104.255C184.183 106.818 183.629 109.009 183.198 111.901C182.881 113.99 182.122 115.622 179.62 115.982C174.874 116.655 176.23 112.752 175.154 109.882C173.921 106.619 171.295 104.045 169.461 101.132C164.155 92.7213 165.694 76.0885 176.698 72.5401C188.73 68.6633 194.865 88.0421 190.974 96.5497Z" fill="#EAC5B0"/>
<path d="M171.753 88.4083C170.386 88.4621 168.879 88.5698 167.862 89.4852C166.845 90.4006 166.958 92.409 168.298 92.6297C169.514 92.8236 171.086 91.5528 171.828 92.4844C172.264 93.0228 171.882 93.8197 171.554 94.4497C170.286 96.8516 169.905 99.6236 170.478 102.279C169.977 102.742 169.197 102.279 168.761 101.778C166.583 99.3872 164.886 96.5994 163.762 93.5666C163.314 94.309 162.682 94.9229 161.927 95.3489C162.379 94.2128 162.094 92.9743 161.814 91.8113C160.786 87.5575 160.081 82.5715 163.052 79.0931C164.666 77.23 167.055 76.1639 169.509 75.7116C171.944 75.3541 174.412 75.2764 176.865 75.4801C177.914 75.5285 179.206 75.7547 179.453 76.7239C177.155 77.6446 174.777 79.4161 173.625 81.6184C173.276 82.2969 171.893 88.4029 171.753 88.4083Z" fill="#1A3151"/>
<path d="M176.612 78.1885L176.365 78.3716C175.321 79.1631 174.347 80.1323 173.088 80.4823C171.269 80.9884 169.321 80.1107 167.529 80.73C165.527 81.4246 164.214 83.8153 162.756 85.2314C160.343 87.5517 157.415 89.2661 154.211 90.2336C152.583 90.7301 150.901 91.0302 149.201 91.1275C148.355 91.2505 147.496 91.2505 146.651 91.1275C145.644 90.8582 145.677 90.3952 146.753 90.0506C150.121 88.9737 151.176 84.2407 150.918 81.1069C150.719 78.63 149.842 76.0454 150.805 73.7463C151.526 71.9909 153.076 71.0863 154.571 70.0794C156.223 68.9702 158.01 69.2717 159.883 68.7387C161.836 68.2002 163.429 66.6441 165.425 66.251C167.529 65.8364 169.633 66.7895 171.742 67.1771C173.49 67.5159 175.288 67.4939 177.027 67.1125C178.576 66.7733 180.094 66.1433 181.681 66.1595C184.022 66.1595 186.18 67.6456 187.547 69.5463C189.478 72.2386 190.732 76.8477 190.049 80.3907C190.156 79.8523 188.305 77.8493 187.923 77.4185C187.122 76.5139 186.148 75.6631 184.921 75.5178C182.133 75.1839 178.819 76.5624 176.612 78.1885Z" fill="#1A3151"/>
<path d="M496.634 168.896C496.501 168.746 496.347 168.615 496.177 168.508C494.595 167.62 493.244 168.104 491.484 167.69C490.699 167.501 490.01 165.536 488.794 166.71C488.347 167.141 487.389 168.325 486.442 169.273C485.059 170.619 482.493 171.491 480.324 171.809C471.817 173.047 463.207 171.933 454.726 170.565C454.237 170.524 453.765 170.367 453.349 170.108C452.644 169.569 452.515 168.6 452.423 167.728C452 163.678 451.202 159.676 450.039 155.774C449.001 152.296 447.629 148.817 445.197 146.125C442.764 143.433 439.084 141.64 435.511 142.253C434.17 142.494 432.906 143.05 431.822 143.874C430.738 144.699 429.864 145.769 429.274 146.997C426.417 153.103 433.041 160.415 436.016 165.353C438.852 170.04 442.013 174.522 445.476 178.766C445.871 179.316 446.372 179.781 446.951 180.133C447.612 180.422 448.328 180.567 449.049 180.559C458.294 181.097 467.533 180.79 476.816 180.311C479.366 180.177 481.524 178.696 483.881 178.62C485.388 178.556 486.615 179.59 488.051 179.843C489.629 180.09 491.238 180.067 492.808 179.773C495.59 179.202 496.812 176.542 498.114 174.307C498.439 173.859 498.637 173.33 498.684 172.778C498.727 171.804 498.184 171.023 497.673 170.231C497.371 169.753 497.024 169.306 496.634 168.896V168.896Z" fill="#EAC5B0"/>
<path d="M431.544 165.924C433.627 169.068 435.72 172.218 437.539 175.616C438.744 177.867 439.928 180.273 442.027 181.717C443.407 182.563 444.929 183.153 446.52 183.456C456.275 185.822 466.383 186.37 476.336 185.071C477.277 185.025 478.187 184.728 478.973 184.21C480.243 183.203 480.351 181.35 480.351 179.73V173.99C480.411 173.426 480.282 172.857 479.985 172.374C479.611 171.996 479.127 171.745 478.602 171.658C472.466 169.987 466.229 168.714 459.93 167.846C457.922 167.571 455.781 167.281 454.253 165.951C450.976 163.108 450.9 152.489 450.147 148.112C449.291 143.11 448.597 138.064 447.618 133.084C446.542 127.548 445.358 121.825 442.054 117.253C435.005 107.491 419.599 111.179 418.781 123.612C418.162 132.997 419.921 142.539 423.322 151.278C425.41 156.641 428.467 161.277 431.544 165.924Z" fill="#474EBB"/>
<path d="M252.054 109.494C252.248 109.497 252.44 109.528 252.625 109.586C254.266 110.194 254.777 111.497 256.171 112.531C256.8 112.994 258.673 112.278 258.576 113.904C258.544 114.502 258.248 115.961 258.167 117.242C258.044 119.105 259.012 121.55 260.137 123.338C264.56 130.386 270.775 136.034 277.103 141.43C277.441 141.766 277.854 142.018 278.309 142.162C279.137 142.35 279.923 141.833 280.639 141.354C283.885 139.126 287.331 137.205 290.933 135.614C294.161 134.198 297.567 133.03 301.076 133.137C304.584 133.245 308.211 134.828 309.998 137.849C310.66 138.99 311.041 140.273 311.112 141.591C311.182 142.909 310.938 144.225 310.401 145.43C307.711 151.353 298.176 151.079 292.644 151.967C287.422 152.808 282.149 153.281 276.861 153.383C276.208 153.438 275.551 153.359 274.929 153.152C274.307 152.843 273.757 152.406 273.315 151.87C267.132 145.409 261.552 138.409 256.096 131.247C254.594 129.282 254.314 126.778 252.91 124.98C252.011 123.828 250.483 123.575 249.396 122.675C248.226 121.668 247.236 120.468 246.469 119.127C245.145 116.72 246.34 114.141 247.163 111.793C247.29 111.272 247.556 110.796 247.932 110.415C248.627 109.774 249.547 109.682 250.44 109.564C250.975 109.488 251.515 109.465 252.054 109.494V109.494Z" fill="#EAC5B0"/>
<path d="M295.103 156.275C290.592 156.813 286.039 156.905 281.511 156.549C279.917 156.482 278.344 156.17 276.845 155.623C274.547 154.681 272.766 152.829 271.05 151.03C264.894 144.569 258.673 138.032 253.943 130.472L260.611 126.477C260.824 126.284 261.077 126.142 261.352 126.058C261.627 125.975 261.917 125.954 262.201 125.995C262.485 126.037 262.756 126.141 262.996 126.299C263.235 126.458 263.437 126.667 263.586 126.913L275.29 138.382C275.844 139.038 276.577 139.519 277.399 139.766C278.037 139.843 278.684 139.769 279.288 139.55C289.986 136.465 299.526 128.593 309.153 123.192C313.91 120.5 318.839 117.808 324.295 117.366C335.902 116.44 342.844 130.117 334.207 138.511C323.956 148.451 309.578 154.568 295.103 156.275Z" fill="white"/>
<path d="M308.674 324.46L308.862 337.7L301.022 337.803L300.817 323.125L308.674 324.46Z" fill="#EAC5B0"/>
<path d="M301.722 335.73L308.54 337.986L310.574 340.177L310.229 345.368L291.821 346.8C291.457 346.277 291.219 345.676 291.127 345.046C291.035 344.415 291.091 343.771 291.29 343.166C291.49 342.561 291.827 342.01 292.276 341.558C292.725 341.105 293.273 340.763 293.876 340.56L294.732 340.263L301.722 335.73Z" fill="#1A3151"/>
<path d="M365.186 311.769L370.379 323.948L363.163 327.023L357.405 313.519L365.186 311.769Z" fill="#EAC5B0"/>
<path d="M363.297 327.249C363.572 326.948 363.876 326.675 364.206 326.436C365.073 325.801 372.063 322.096 372.665 323.744C372.742 324.023 372.753 324.316 372.698 324.6C372.12 329.411 370.996 334.141 369.345 338.697C368.64 340.646 367.57 342.799 365.579 343.284C364.682 343.442 363.762 343.392 362.888 343.139C361.581 342.843 360.297 342.455 359.046 341.976C358.571 341.846 358.155 341.557 357.868 341.157C357.394 340.301 358.223 339.283 359.084 338.82C359.945 338.357 361.005 338.029 361.424 337.14C361.588 336.731 361.67 336.294 361.667 335.853C361.817 332.617 361.268 329.494 363.297 327.249Z" fill="#1A3151"/>
<path d="M315.923 263.098C318.495 274.869 325.851 283.328 333.68 291.98C342.68 301.881 351.14 312.26 359.025 323.071L369.249 318.812C366.402 302.27 358.562 287.091 352.487 271.428C348.263 260.556 344.846 249.061 344.657 237.312C344.555 231.534 345.965 226.149 346.708 220.485C347.644 213.447 347.698 206.232 348.548 199.157C348.833 196.788 348.995 193.982 347.17 192.437C346.312 191.802 345.307 191.396 344.248 191.258C305.559 183.757 311.026 240.715 315.923 263.098Z" fill="#353A85"/>
<path d="M347.45 201.381C347.503 194.89 346.77 188.418 345.265 182.104C334.256 181.512 321.814 182.734 310.929 184.942C300.285 187.096 293.65 189.422 293.575 200.966C293.435 222.213 285.132 240.311 281.553 260.734C279.471 272.58 283.071 283.22 287.058 294.21C291.622 306.79 295.506 319.608 298.692 332.607L309.756 332.542C313.393 316.157 311.908 299.158 312.204 282.358C312.419 270.696 313.614 258.763 317.897 247.822C322.606 235.793 329.386 240.58 337.167 233.607C344.716 226.812 347.412 213.706 347.45 201.381Z" fill="#353A85"/>
<path d="M334.944 119.606C336.141 120.593 337.259 121.673 338.286 122.837L341.122 125.863C344.399 129.358 346.018 134.537 347.423 139.001C354.811 162.51 357.469 194.758 352.675 219.322C334.476 220.894 313.393 216.301 295.248 213.819C293.483 213.577 291.481 213.184 290.566 211.665C290.028 210.739 289.996 209.597 289.996 208.515C289.996 192.9 293.289 176.165 296.378 160.792C297.654 154.298 299.313 147.884 301.345 141.586C303.524 134.925 305.983 127.737 311.084 122.702C316.541 117.318 326.996 114.625 333.825 118.858C334.211 119.087 334.585 119.337 334.944 119.606V119.606Z" fill="white"/>
<path d="M333.298 122.95C333.761 120.828 333.669 118.346 333.949 116.521C334.381 116.315 334.799 116.083 335.203 115.826C342.795 110.98 355.527 84.9353 335.294 79.1039C316.923 73.8109 317.876 99.1019 321.46 109.65C322.033 111.459 322.93 113.148 324.107 114.636C324.936 115.649 325.124 115.455 325.006 116.634C324.817 118.405 323.445 119.902 323.203 121.728C322.832 124.555 323.854 128.189 324.494 130.935L331.205 126.498C332.378 125.718 332.975 124.425 333.298 122.95Z" fill="#EAC5B0"/>
<path d="M317.144 100.093C318.272 103.461 319.842 106.664 321.815 109.618C321.71 103.383 322.461 97.1632 324.048 91.1329C324.139 90.9137 324.187 90.6785 324.187 90.4409C324.187 90.2034 324.139 89.9682 324.048 89.749C323.908 89.5762 323.735 89.433 323.539 89.3276C323.343 89.2222 323.128 89.1568 322.907 89.1352C315.158 87.4714 315.18 94.2289 317.144 100.093Z" fill="#1A3151"/>
<path d="M337.468 109.472C338.711 111.217 341.428 110.749 343.344 109.785C351.206 105.827 355.839 96.3235 354.106 87.676C352.648 80.45 343.548 75.0332 341.73 83.9876C341.078 87.1591 343.01 91.5582 342.569 95.0797C341.902 100.109 339.556 104.917 337.468 109.472Z" fill="#1A3151"/>
<path d="M317.224 72.4701C316.342 72.8201 315.449 73.1863 314.502 73.547C312.548 74.3116 311.128 74.5701 309.121 73.4232C308.545 73.0947 304.681 69.4387 305.612 68.6794C299.451 73.7086 304.536 81.0638 306.828 86.2545C308.389 89.7598 308.706 94.7028 312.209 96.9966C316.062 99.5165 318.704 96.3289 322.202 94.902C325.285 93.642 328.621 92.9636 331.759 91.8436C336.968 89.986 344.716 86.7176 342.994 79.7931C340.982 71.7163 332.77 69.6917 325.436 70.3109C322.603 70.6006 319.833 71.329 317.224 72.4701V72.4701Z" fill="#1A3151"/>
<path d="M321.744 139.879C320.9 145.199 320.905 150.648 320.13 156.032C319.716 158.967 319.054 161.864 318.516 164.782C317.025 173.058 316.525 181.474 316.019 189.863L315.723 194.833C315.658 195.883 315.233 197.612 315.723 198.602C316.213 199.593 317.536 199.728 318.505 200.126C319.908 200.698 321.209 201.492 322.358 202.479C324.51 201.849 325.925 199.744 326.415 197.574C326.905 195.404 326.636 193.142 326.415 190.929C324.292 171.506 324.668 151.889 327.534 132.561C328.395 132.949 329.439 132.314 329.837 131.484C330.159 130.592 330.245 129.631 330.085 128.695C330.085 128.857 325.608 128.695 325.242 128.663C322.552 128.528 321.777 129.153 321.771 132.12C323.073 132.744 322.847 134.634 322.471 136.034C322.207 137.305 321.954 138.576 321.744 139.879Z" fill="#A468DE"/>
<path d="M206.035 337.905C207.692 337.959 209.264 337.587 210.921 337.437C211.761 321.283 210.238 304.311 209.57 288.061L197.113 288.728C200.005 297.42 202.068 306.366 203.275 315.446C203.468 316.884 205.798 337.894 206.035 337.905Z" fill="#EAC5B0"/>
<path d="M211.422 334.297C212.444 334.114 213.036 334.572 213.736 335.197C214.134 335.557 214.403 336.074 214.882 336.333C215.357 336.559 215.874 336.684 216.4 336.699C219.397 337 226.295 336.877 222.62 341.89C219.284 346.439 210.416 344.63 205.293 343.392C204.947 343.356 204.62 343.22 204.351 342.999C204.093 342.708 203.908 342.359 203.813 341.981C203.227 339.827 202.43 337.162 205.062 336.268C206.186 335.886 207.214 336.629 208.409 336.214C209.399 335.88 210.4 334.48 211.422 334.297Z" fill="#1A3151"/>
<path d="M218.88 297.817L193.476 297.322C186.628 264.692 180.598 231.906 175.385 198.963C174.982 196.411 174.589 193.756 175.326 191.274C176.714 186.589 181.735 183.913 186.535 183.014C193.998 181.62 207.709 183.553 211.541 191.328C215.587 199.534 214.909 214.19 215.889 223.258C218.568 248.015 219.567 272.925 218.88 297.817V297.817Z" fill="#1A3151"/>
<path d="M157.612 337.905C155.949 337.959 154.383 337.587 152.726 337.437C151.886 321.283 153.409 304.311 154.076 288.061L166.533 288.728C163.642 297.42 161.579 306.366 160.372 315.446C160.178 316.884 157.832 337.894 157.612 337.905Z" fill="#EAC5B0"/>
<path d="M152.225 334.297C151.202 334.114 150.61 334.572 149.911 335.197C149.513 335.557 149.244 336.074 148.765 336.333C148.29 336.559 147.773 336.684 147.247 336.699C144.25 337 137.352 336.877 141.027 341.89C144.363 346.439 153.231 344.63 158.354 343.392C158.7 343.356 159.027 343.22 159.295 342.999C159.554 342.708 159.739 342.359 159.834 341.981C160.42 339.827 161.217 337.162 158.585 336.268C157.461 335.886 156.433 336.629 155.238 336.214C154.248 335.88 153.247 334.48 152.225 334.297Z" fill="#1A3151"/>
<path d="M144.767 297.817L170.17 297.322C177.019 264.692 183.049 231.906 188.262 198.963C188.665 196.411 189.058 193.756 188.321 191.274C186.933 186.589 181.912 183.913 177.112 183.014C169.649 181.62 155.938 183.553 152.106 191.328C148.06 199.534 148.738 214.19 147.758 223.258C145.079 248.015 144.08 272.925 144.767 297.817V297.817Z" fill="#414446"/>
<path d="M223.25 66.8972C223.131 67.0132 223.03 67.1456 222.948 67.2902C222.287 68.6364 222.744 69.7348 222.475 71.2048C222.356 71.8617 220.769 72.5186 221.786 73.4717C222.157 73.8216 223.201 74.5486 224.003 75.3024C225.176 76.3793 226.005 78.4739 226.36 80.2508C227.754 87.2506 227.21 94.4013 226.451 101.477C226.44 101.884 226.331 102.283 226.134 102.64C225.73 103.243 224.929 103.393 224.208 103.506C220.88 104.033 217.609 104.868 214.436 105.999C211.605 107.006 208.796 108.299 206.676 110.431C204.556 112.563 203.238 115.681 203.899 118.61C204.159 119.709 204.675 120.73 205.405 121.59C206.136 122.451 207.06 123.125 208.102 123.558C213.273 125.653 219.02 119.875 222.97 117.183C226.71 114.63 230.267 111.818 233.614 108.767C234.055 108.419 234.421 107.985 234.69 107.491C234.899 106.931 234.987 106.332 234.948 105.736C234.893 98.066 234.42 90.4051 233.533 82.7869C233.312 80.6815 232.015 78.9639 231.827 77.0147C231.709 75.7708 232.511 74.7101 232.656 73.5147C232.79 72.1987 232.699 70.8694 232.387 69.584C231.795 67.3118 229.535 66.4126 227.646 65.4326C227.262 65.1838 226.817 65.0442 226.36 65.0287C225.553 65.0287 224.934 65.5187 224.299 65.9764C223.92 66.2479 223.568 66.5564 223.25 66.8972V66.8972Z" fill="#EAC5B0"/>
<path d="M223.868 121.41C227.183 119.073 230.277 116.451 233.506 113.839C234.124 113.41 234.641 112.849 235.018 112.197C235.267 111.578 235.392 110.915 235.384 110.248C235.852 101.204 235.661 92.1373 234.813 83.1207L226.171 83.7938L225.902 96.6305C225.902 97.9174 225.827 99.2689 225.154 100.362C224.406 101.579 223.034 102.236 221.732 102.828C217.723 104.659 214.349 104.799 210.077 104.842C202.724 104.914 195.418 106.032 188.38 108.164C187.04 108.573 185.571 109.128 184.969 110.393C184.687 111.118 184.57 111.896 184.624 112.671C184.624 116.262 184.624 119.892 185.372 123.397C185.986 126.175 187.659 131.269 190.436 132.712C193.126 134.107 197.824 132.653 200.66 132.028C206.606 132.028 213.327 127.543 218.358 124.851C220.264 123.818 222.104 122.669 223.868 121.41Z" fill="#F2A222"/>
<path d="M166.474 118.895C164.623 121.216 162.315 123.203 160.496 125.621C156.68 130.683 153.66 136.299 151.542 142.275C146.118 157.508 146.015 173.774 145.962 189.712C145.962 195.018 145.945 200.324 145.913 205.629C145.913 210.847 146.36 211.972 152.026 211.283C162.53 209.996 173.437 207.842 182.967 203.168C187.498 200.945 191.727 198.139 196.479 196.389C203.388 193.842 210.47 194.995 217.304 193.342C214.339 184.366 212.213 176.725 210.69 167.496C209.124 157.976 207.698 147.573 205.401 138.199C204.023 132.561 201.456 127.295 198.852 122.115C197.91 120.151 196.843 118.25 195.656 116.424C195.014 115.468 194.294 114.568 193.503 113.732C192.938 113.139 192.384 112.116 191.598 111.863C189.443 111.229 187.253 110.722 185.039 110.345C184.651 109.925 184.926 109.047 184.398 108.81C184.254 108.759 184.098 108.744 183.946 108.767L174.621 109.456C174.573 110.037 174.626 110.622 174.777 111.185C174.848 111.464 174.851 111.756 174.787 112.037C174.722 112.318 174.591 112.58 174.406 112.8C174.126 113.013 173.803 113.16 173.459 113.231L173.131 113.333C170.139 114.335 168.465 116.305 166.609 118.685L166.474 118.895Z" fill="#F2A222"/>
<path d="M256.23 0L152.021 0.274609C148.4 0.308725 144.94 1.7806 142.403 4.36655C139.866 6.95251 138.46 10.4408 138.493 14.0643L138.611 59.1004C138.604 60.895 138.95 62.6735 139.63 64.3342C140.31 65.995 141.31 67.5054 142.573 68.7794C143.836 70.0534 145.338 71.066 146.992 71.7593C148.646 72.4526 150.421 72.8131 152.214 72.8201L256.424 72.5455C260.045 72.5114 263.505 71.0395 266.042 68.4536C268.579 65.8676 269.985 62.3793 269.952 58.7558L269.834 13.7197C269.841 11.9251 269.495 10.1466 268.815 8.48591C268.135 6.82517 267.135 5.31469 265.872 4.04069C264.609 2.76669 263.107 1.75413 261.453 1.06083C259.798 0.367528 258.024 0.00705713 256.23 0V0Z" fill="#7D6CCC"/>
<g opacity="0.08">
<path opacity="0.08" d="M255.805 0L204.082 0.139996L204.265 72.6909L255.988 72.5509C257.838 72.534 259.666 72.1526 261.369 71.4286C263.072 70.7045 264.615 69.6519 265.912 68.3309C267.208 67.0099 268.231 65.4463 268.923 63.7295C269.616 62.0127 269.963 60.1763 269.946 58.325L269.833 14.172C269.843 12.3195 269.488 10.4831 268.788 8.76799C268.088 7.05286 267.058 5.49258 265.755 4.17637C264.452 2.86016 262.902 1.81383 261.195 1.09722C259.488 0.380603 257.656 0.0077574 255.805 0V0Z" fill="black"/>
</g>
<path d="M254.234 4.78683L154.065 5.05606C151.411 5.08307 148.877 6.16239 147.018 8.05717C145.158 9.95195 144.126 12.5074 144.148 15.1628L144.261 57.9804C144.254 60.6358 145.299 63.1855 147.169 65.0702C149.038 66.9548 151.578 68.0205 154.232 68.0333L254.427 67.7695C257.081 67.7425 259.615 66.6631 261.475 64.7684C263.334 62.8736 264.366 60.3181 264.345 57.6627L264.232 14.8451C264.236 13.5276 263.981 12.2221 263.48 11.0034C262.98 9.78465 262.245 8.67654 261.316 7.7424C260.387 6.80826 259.284 6.06642 258.069 5.55928C256.854 5.05214 255.55 4.78966 254.234 4.78683Z" fill="#6D78E3"/>
<path opacity="0.11" d="M254.233 4.78683L204.136 4.92145L204.297 67.9202L254.395 67.7856C257.049 67.7586 259.583 66.6793 261.442 64.7845C263.302 62.8897 264.334 60.3343 264.312 57.6789L264.199 14.8613C264.212 12.2031 263.17 9.64867 261.301 7.7595C259.432 5.87033 256.89 4.80108 254.233 4.78683V4.78683Z" fill="#F3F9FB"/>
<path d="M198.836 47.2168C198.864 48.4502 198.64 49.6763 198.177 50.8199C197.715 51.9634 197.023 53.0002 196.145 53.8667C195.3 54.7479 194.284 55.4463 193.158 55.9186C192.033 56.391 190.822 56.6272 189.602 56.6128H189.139C187.917 56.6365 186.702 56.4051 185.574 55.9332C184.445 55.4614 183.427 54.7594 182.585 53.872C181.718 53.0071 181.032 51.9766 180.57 50.8417C180.108 49.7068 179.878 48.4906 179.895 47.2652V43.6953C179.859 41.3706 180.703 39.1182 182.257 37.3901C182.931 36.6184 183.734 35.9698 184.63 35.4732C182.982 34.5765 181.69 33.1417 180.971 31.4079C180.5 30.2349 180.277 28.9774 180.314 27.7141V25.5603C180.224 23.2449 181.012 20.9809 182.521 19.2227C183.331 18.2989 184.337 17.567 185.465 17.08C186.593 16.5929 187.815 16.3629 189.042 16.4066H189.505C190.743 16.3538 191.978 16.5782 193.118 17.0635C194.259 17.5489 195.276 18.2829 196.097 19.2119C197.61 20.9653 198.411 23.2231 198.341 25.5387V27.6926C198.423 29.9208 197.653 32.0966 196.189 33.7771C195.577 34.465 194.848 35.0393 194.036 35.4732C195.816 36.5011 197.227 38.0652 198.066 39.9423C198.595 41.1116 198.853 42.3854 198.82 43.6684L198.836 47.2168ZM193.127 27.1595C193.076 24.4708 192.237 22.7855 190.608 22.1034C190.188 21.9279 189.735 21.8435 189.279 21.8557C188.379 21.8204 187.497 22.1239 186.809 22.7065C186.293 23.1833 185.92 23.795 185.733 24.4726C185.502 25.3502 185.415 26.2594 185.475 27.1649C185.539 28.8736 185.81 30.1012 186.287 30.8479C186.908 31.8458 187.92 32.343 189.322 32.3394C189.931 32.3788 190.539 32.2487 191.078 31.9636C191.618 31.6784 192.068 31.2494 192.379 30.724C192.948 29.6264 193.207 28.3937 193.127 27.1595V27.1595ZM192.987 44.4438C192.987 42.1033 192.449 40.5382 191.372 39.7485C190.759 39.3477 190.032 39.1586 189.301 39.21C188.629 39.1601 187.959 39.3293 187.392 39.6924C186.824 40.0554 186.389 40.5928 186.153 41.2238C185.789 42.2715 185.624 43.3784 185.669 44.4868V46.366C185.645 46.9404 185.738 47.5136 185.941 48.0512C186.145 48.5888 186.455 49.0797 186.852 49.4944C187.266 49.9244 187.784 50.2398 188.356 50.41C188.928 50.5801 189.534 50.5991 190.116 50.4652C190.697 50.3313 191.234 50.0489 191.674 49.6458C192.114 49.2426 192.442 48.7322 192.626 48.1645C192.865 47.5884 192.979 46.968 192.96 46.3445L192.987 44.4438Z" fill="white"/>
<path d="M174.513 47.1683C174.541 48.4017 174.317 49.6278 173.854 50.7714C173.392 51.9149 172.7 52.9518 171.823 53.8182C170.967 54.6843 169.948 55.3719 168.825 55.8412C167.702 56.3105 166.496 56.5521 165.279 56.5521C164.062 56.5521 162.857 56.3105 161.734 55.8412C160.611 55.3719 159.592 54.6843 158.736 53.8182C157.857 52.9563 157.163 51.9249 156.695 50.7864C156.227 49.6479 155.995 48.4262 156.013 47.1952L155.959 25.7595C155.932 24.5238 156.156 23.2954 156.619 22.1494C157.081 21.0033 157.772 19.9635 158.65 19.0935C159.493 18.209 160.509 17.5078 161.635 17.0335C162.76 16.5592 163.972 16.322 165.193 16.3366C166.417 16.3124 167.632 16.5436 168.761 17.0155C169.891 17.4874 170.91 18.1896 171.753 19.0773C172.624 19.9461 173.312 20.9818 173.774 22.1226C174.236 23.2633 174.464 24.4856 174.443 25.7164L174.513 47.1683ZM168.4 25.6303C168.406 25.1817 168.321 24.7366 168.15 24.3219C167.979 23.9072 167.725 23.5317 167.405 23.218C167.097 22.8967 166.727 22.6424 166.317 22.471C165.907 22.2996 165.465 22.2148 165.021 22.2219C164.579 22.2159 164.14 22.3023 163.734 22.4757C163.327 22.6491 162.961 22.9056 162.659 23.2288C162.344 23.5463 162.095 23.9239 161.929 24.3392C161.763 24.7545 161.681 25.1991 161.69 25.6464L161.744 47.1145C161.737 47.5617 161.821 48.0057 161.989 48.4201C162.157 48.8345 162.407 49.2108 162.723 49.5267C163.027 49.8489 163.394 50.104 163.802 50.2756C164.21 50.4471 164.649 50.5314 165.091 50.5229C165.535 50.5279 165.976 50.441 166.385 50.2678C166.794 50.0945 167.164 49.8386 167.469 49.516C167.789 49.2008 168.041 48.824 168.21 48.4084C168.379 47.9928 168.462 47.5471 168.454 47.0983L168.4 25.6303Z" fill="white"/>
<path d="M228.986 47.0822C229.014 48.3156 228.79 49.5417 228.327 50.6852C227.864 51.8288 227.173 52.8656 226.295 53.732C225.44 54.5981 224.421 55.2857 223.297 55.755C222.174 56.2243 220.969 56.4659 219.752 56.4659C218.535 56.4659 217.33 56.2243 216.207 55.755C215.083 55.2857 214.064 54.5981 213.209 53.732C212.33 52.8702 211.636 51.8387 211.168 50.7002C210.7 49.5618 210.468 48.34 210.486 47.1091L210.432 25.6734C210.404 24.4376 210.629 23.2093 211.091 22.0632C211.554 20.9171 212.245 19.8774 213.122 19.0073C213.966 18.1229 214.982 17.4216 216.107 16.9473C217.233 16.473 218.444 16.2358 219.666 16.2505C220.891 16.2283 222.107 16.4621 223.236 16.9368C224.366 17.4114 225.384 18.1167 226.225 19.0073C227.097 19.8761 227.784 20.9118 228.247 22.0526C228.709 23.1933 228.937 24.4156 228.916 25.6464L228.986 47.0822ZM222.873 25.5441C222.879 25.0955 222.794 24.6504 222.623 24.2357C222.452 23.8211 222.198 23.4455 221.877 23.1319C221.57 22.8106 221.2 22.5562 220.789 22.3848C220.379 22.2134 219.938 22.1286 219.494 22.1357C219.051 22.1311 218.612 22.2192 218.205 22.3945C217.798 22.5698 217.432 22.8283 217.131 23.1534C216.816 23.4709 216.568 23.8485 216.402 24.2638C216.235 24.6791 216.154 25.1237 216.163 25.571L216.217 47.0391C216.21 47.4863 216.293 47.9303 216.462 48.3447C216.63 48.7591 216.88 49.1354 217.196 49.4514C217.499 49.7735 217.867 50.0286 218.274 50.2002C218.682 50.3717 219.121 50.456 219.564 50.4475C220.008 50.4525 220.449 50.3656 220.858 50.1924C221.267 50.0191 221.636 49.7632 221.942 49.4406C222.261 49.1254 222.513 48.7486 222.683 48.333C222.852 47.9174 222.935 47.4717 222.927 47.0229L222.873 25.5441Z" fill="white"/>
<path d="M252.539 47.0176C252.567 48.2509 252.343 49.4771 251.88 50.6206C251.417 51.7642 250.726 52.801 249.848 53.6674C248.992 54.5335 247.973 55.2211 246.85 55.6904C245.727 56.1597 244.522 56.4013 243.305 56.4013C242.088 56.4013 240.882 56.1597 239.759 55.6904C238.636 55.2211 237.617 54.5335 236.761 53.6674C235.883 52.8055 235.189 51.7741 234.721 50.6356C234.252 49.4971 234.02 48.2754 234.038 47.0445L233.985 25.6087C233.957 24.373 234.182 23.1447 234.644 21.9986C235.107 20.8525 235.798 19.8127 236.675 18.9427C237.518 18.0582 238.534 17.357 239.66 16.8827C240.786 16.4084 241.997 16.1712 243.219 16.1858C244.442 16.1616 245.657 16.3928 246.787 16.8647C247.916 17.3366 248.935 18.0388 249.778 18.9266C250.65 19.7953 251.337 20.831 251.799 21.9718C252.262 23.1125 252.489 24.3349 252.469 25.5657L252.539 47.0176ZM246.426 25.4795C246.432 25.0309 246.347 24.5858 246.175 24.1711C246.004 23.7564 245.751 23.3809 245.43 23.0672C245.123 22.7459 244.752 22.4916 244.342 22.3202C243.932 22.1488 243.491 22.064 243.046 22.0711C242.604 22.0651 242.166 22.1515 241.759 22.3249C241.352 22.4983 240.986 22.7548 240.684 23.078C240.369 23.3955 240.121 23.7731 239.954 24.1884C239.788 24.6037 239.707 25.0483 239.715 25.4957L239.769 46.9637C239.763 47.4109 239.846 47.8549 240.014 48.2693C240.182 48.6837 240.432 49.06 240.749 49.376C241.052 49.6981 241.419 49.9532 241.827 50.1248C242.235 50.2963 242.674 50.3806 243.116 50.3721C243.561 50.3771 244.001 50.2902 244.411 50.117C244.82 49.9437 245.189 49.6878 245.495 49.3652C245.814 49.05 246.066 48.6732 246.235 48.2576C246.405 47.842 246.488 47.3963 246.479 46.9476L246.426 25.4795Z" fill="white"/>
<path d="M201.806 27.181H206.589V32.0594H201.806V27.181ZM201.843 40.8361H206.627V45.6822H201.843V40.8361Z" fill="white"/>
<path d="M286.416 328.812C337.665 310.056 364.016 253.278 345.271 201.996C326.527 150.714 269.786 124.347 218.536 143.103C167.287 161.86 140.937 218.637 159.681 269.919C178.425 321.202 235.167 347.569 286.416 328.812Z" fill="#7D6CCC"/>
<path d="M281.891 316.433C326.308 300.177 349.146 250.969 332.9 206.524C316.655 162.079 267.478 139.227 223.061 155.482C178.645 171.738 155.807 220.946 172.053 265.392C188.298 309.837 237.475 332.689 281.891 316.433Z" fill="#A468DE"/>
<g style="mix-blend-mode:multiply" opacity="0.07">
<g style="mix-blend-mode:multiply" opacity="0.07">
<path d="M286.439 157.766C303.443 167.458 315.906 183.51 324.483 202.791C336.822 230.527 316.853 292.013 273.471 312.695C252.931 322.489 229.631 319.28 210.254 310.945C220.375 316.712 231.566 320.352 243.142 321.643C254.718 322.934 266.435 321.848 277.578 318.452C288.72 315.056 299.052 309.421 307.943 301.892C316.834 294.362 324.096 285.097 329.286 274.663C334.475 264.229 337.483 252.845 338.125 241.208C338.767 229.571 337.029 217.925 333.018 206.982C329.008 196.04 322.808 186.032 314.799 177.569C306.79 169.107 297.14 162.368 286.439 157.766V157.766Z" fill="#EBB044"/>
</g>
</g>
<path d="M246.743 237.995L247.771 241.226C247.832 241.432 247.934 241.624 248.07 241.79C248.207 241.956 248.375 242.093 248.565 242.193C248.755 242.294 248.963 242.355 249.176 242.374C249.39 242.393 249.606 242.369 249.81 242.303L328.003 217.346C328.209 217.284 328.4 217.183 328.566 217.046C328.732 216.91 328.869 216.742 328.969 216.552C329.07 216.362 329.131 216.153 329.15 215.939C329.168 215.725 329.144 215.51 329.079 215.305L328.051 212.074C327.99 211.868 327.888 211.677 327.752 211.511C327.615 211.345 327.447 211.207 327.258 211.107C327.068 211.007 326.86 210.946 326.646 210.927C326.432 210.908 326.216 210.932 326.012 210.997L247.798 235.928C247.591 235.991 247.399 236.096 247.233 236.235C247.067 236.374 246.931 236.545 246.833 236.738C246.734 236.931 246.676 237.142 246.66 237.358C246.645 237.574 246.673 237.79 246.743 237.995V237.995Z" fill="white"/>
<path d="M253.615 229.477L239.173 189.955C239.024 189.548 238.797 189.175 238.505 188.856C238.212 188.537 237.86 188.279 237.467 188.096C237.075 187.914 236.651 187.811 236.219 187.792C235.786 187.774 235.355 187.841 234.948 187.989V187.989C234.542 188.138 234.169 188.365 233.85 188.658C233.531 188.95 233.274 189.303 233.091 189.696C232.909 190.088 232.805 190.513 232.787 190.945C232.769 191.378 232.836 191.81 232.984 192.216L247.427 231.739C246.497 232.851 245.959 234.24 245.897 235.689C245.836 237.139 246.254 238.568 247.087 239.755C247.92 240.943 249.121 241.822 250.504 242.257C251.888 242.691 253.376 242.657 254.737 242.159C256.099 241.662 257.259 240.728 258.037 239.504C258.814 238.28 259.166 236.833 259.039 235.388C258.911 233.942 258.31 232.58 257.329 231.511C256.349 230.443 255.043 229.728 253.615 229.477V229.477Z" fill="#FFB65F"/>
<path d="M11.198 170.247L115.644 157.863C117.292 157.662 118.962 157.788 120.561 158.233C122.16 158.678 123.655 159.434 124.962 160.458C126.268 161.481 127.361 162.752 128.177 164.198C128.992 165.644 129.515 167.237 129.716 168.885L138.121 239.993C138.503 243.324 137.546 246.67 135.462 249.295C133.379 251.921 130.338 253.611 127.009 253.993L22.5628 266.377C20.9156 266.578 19.2449 266.452 17.6462 266.007C16.0475 265.562 14.5521 264.806 13.2454 263.783C11.9388 262.759 10.8464 261.488 10.0306 260.042C9.21491 258.596 8.69185 257.003 8.49132 255.355L0.0860991 184.247C-0.295353 180.916 0.661007 177.57 2.74483 174.945C4.82866 172.319 7.8693 170.63 11.198 170.247V170.247Z" fill="#7C86E6"/>
<path d="M95.4925 212.365L120.385 209.42C121.282 209.317 122.101 208.862 122.663 208.156C123.225 207.449 123.484 206.548 123.383 205.651L120.455 180.92C120.401 180.475 120.26 180.046 120.04 179.656C119.821 179.266 119.526 178.923 119.174 178.647C118.822 178.371 118.418 178.167 117.987 178.047C117.556 177.927 117.106 177.893 116.662 177.947L91.7688 180.893C90.8721 180.995 90.0528 181.45 89.4909 182.157C88.9289 182.863 88.6702 183.764 88.7716 184.662L91.6935 209.393C91.7474 209.838 91.8886 210.268 92.1088 210.658C92.329 211.048 92.624 211.391 92.9769 211.668C93.3298 211.944 93.7336 212.147 94.1653 212.267C94.5969 212.387 95.048 212.42 95.4925 212.365Z" fill="white"/>
<path d="M100.12 249.755L125.008 246.81C125.905 246.707 126.724 246.253 127.286 245.546C127.848 244.839 128.106 243.938 128.005 243.041L125.083 218.31C125.029 217.865 124.888 217.436 124.668 217.046C124.449 216.656 124.154 216.313 123.802 216.037C123.449 215.761 123.046 215.557 122.615 215.437C122.184 215.317 121.734 215.283 121.29 215.337L96.3967 218.283C95.5 218.385 94.6808 218.84 94.1188 219.547C93.5568 220.253 93.2981 221.154 93.3995 222.052L96.3214 246.783C96.3754 247.228 96.5165 247.658 96.7367 248.048C96.9569 248.438 97.2519 248.781 97.6048 249.058C97.9577 249.334 98.3615 249.537 98.7932 249.657C99.2248 249.777 99.6759 249.81 100.12 249.755V249.755Z" fill="white"/>
<path d="M56.6307 216.969L81.5235 214.024C82.4202 213.921 83.2395 213.466 83.8015 212.759C84.3635 212.053 84.6221 211.152 84.5208 210.254L81.5988 185.523C81.5449 185.079 81.4039 184.649 81.1841 184.259C80.9642 183.87 80.6697 183.527 80.3174 183.251C79.9651 182.975 79.5619 182.771 79.1309 182.651C78.6998 182.531 78.2493 182.497 77.8052 182.551L52.9016 185.486C52.0049 185.588 51.1856 186.043 50.6237 186.75C50.0617 187.456 49.803 188.357 49.9044 189.255L52.8263 213.986C52.8789 214.432 53.0193 214.864 53.2393 215.256C53.4593 215.648 53.7546 215.992 54.1082 216.27C54.4618 216.547 54.8667 216.751 55.2996 216.871C55.7326 216.991 56.1849 217.025 56.6307 216.969V216.969Z" fill="white"/>
<path d="M61.2581 254.354L86.1509 251.408C87.0476 251.305 87.867 250.851 88.4289 250.144C88.9909 249.437 89.2496 248.536 89.1482 247.639L86.2209 222.919C86.1669 222.474 86.026 222.045 85.8061 221.655C85.5862 221.265 85.2917 220.922 84.9395 220.646C84.5872 220.37 84.184 220.166 83.7529 220.046C83.3219 219.926 82.8714 219.892 82.4273 219.947L57.5345 222.892C56.6378 222.995 55.8185 223.449 55.2565 224.156C54.6945 224.863 54.4358 225.764 54.5372 226.661L57.4591 251.392C57.5707 252.289 58.0335 253.104 58.7459 253.66C59.4583 254.215 60.3619 254.465 61.2581 254.354V254.354Z" fill="white"/>
<path d="M17.7679 221.567L42.6769 218.611C43.5736 218.508 44.3929 218.054 44.9548 217.347C45.5168 216.64 45.7755 215.739 45.6741 214.842L42.7522 190.111C42.6982 189.667 42.5573 189.237 42.3374 188.847C42.1175 188.457 41.823 188.114 41.4707 187.838C41.1184 187.562 40.7153 187.359 40.2842 187.238C39.8532 187.118 39.4027 187.085 38.9585 187.139L14.0442 190.073C13.1475 190.176 12.3282 190.631 11.7662 191.337C11.2043 192.044 10.9456 192.945 11.047 193.842L13.9743 218.611C14.0872 219.506 14.5498 220.319 15.2608 220.873C15.9719 221.427 16.8734 221.677 17.7679 221.567V221.567Z" fill="white"/>
<path d="M22.3958 258.952L47.2886 256.007C48.1853 255.904 49.0046 255.449 49.5666 254.743C50.1286 254.036 50.3873 253.135 50.2859 252.237L47.3586 227.496C47.3046 227.051 47.1637 226.622 46.9438 226.232C46.7239 225.842 46.4294 225.499 46.0771 225.223C45.7248 224.947 45.3217 224.743 44.8906 224.623C44.4596 224.503 44.0091 224.469 43.5649 224.523L18.6721 227.469C17.7754 227.571 16.9562 228.026 16.3942 228.733C15.8322 229.439 15.5735 230.34 15.6749 231.238L18.5968 255.969C18.6494 256.415 18.7896 256.846 19.0093 257.237C19.2289 257.629 19.5237 257.973 19.8767 258.25C20.2298 258.528 20.634 258.732 21.0664 258.853C21.4987 258.973 21.9505 259.007 22.3958 258.952Z" fill="white"/>
<path d="M100.578 149.291L104.21 148.86C105.159 148.745 106.115 149.011 106.868 149.601C107.621 150.19 108.109 151.055 108.224 152.005L109.801 165.364C109.91 166.314 109.637 167.269 109.043 168.018C108.449 168.767 107.581 169.25 106.631 169.359L102.999 169.79C102.05 169.905 101.094 169.639 100.341 169.049C99.5886 168.46 99.1007 167.595 98.985 166.645L97.4083 153.286C97.2993 152.336 97.5719 151.381 98.1663 150.632C98.7607 149.883 99.6281 149.4 100.578 149.291V149.291Z" fill="#9EA6AD"/>
<path d="M19.2587 158.913L22.8909 158.482C23.8399 158.367 24.7959 158.633 25.5487 159.223C26.3015 159.813 26.7894 160.677 26.9051 161.627L28.4818 174.997C28.5908 175.947 28.3181 176.902 27.7238 177.651C27.1294 178.4 26.262 178.883 25.3123 178.992L21.6801 179.423C20.7311 179.538 19.7751 179.272 19.0223 178.682C18.2695 178.093 17.7816 177.228 17.6659 176.278L16.0892 162.919C16.0337 162.448 16.0717 161.97 16.2011 161.513C16.3305 161.057 16.5486 160.63 16.843 160.258C17.1375 159.886 17.5024 159.575 17.9169 159.345C18.3314 159.114 18.7874 158.967 19.2587 158.913Z" fill="#9EA6AD"/>
<path d="M66.9351 198.182C66.9345 198.009 66.9091 197.837 66.8598 197.671C66.3217 196.195 65.1809 195.743 64.2769 194.472C63.8733 193.907 64.5352 192.243 63.0823 192.319C62.5442 192.319 61.242 192.582 60.1012 192.647C58.4384 192.739 56.2752 191.845 54.6878 190.816C48.4566 186.783 43.4952 181.167 38.7653 175.454C38.4721 175.15 38.2546 174.781 38.1303 174.377C37.9689 173.64 38.4424 172.924 38.8783 172.304C40.9074 169.423 42.6638 166.358 44.1248 163.151C45.427 160.302 46.5086 157.26 46.4548 154.126C46.401 150.992 45.0342 147.735 42.3598 146.103C40.358 144.881 37.2693 143.993 35.6066 145.651C32.647 148.602 30.4246 156.495 29.5636 161.412C28.7513 166.062 28.2658 170.763 28.1107 175.481C28.0548 176.064 28.117 176.652 28.2937 177.21C28.5606 177.774 28.9439 178.275 29.4183 178.68C35.1899 184.211 41.2579 189.423 47.5956 194.295C49.3283 195.657 51.556 195.937 53.1488 197.213C54.1659 198.026 54.3757 199.394 55.1614 200.374C56.0418 201.437 57.0973 202.342 58.2824 203.05C60.4348 204.261 62.7217 203.222 64.8311 202.511C65.2966 202.405 65.7244 202.175 66.0688 201.844C66.6499 201.235 66.7414 200.417 66.8544 199.615C66.9277 199.141 66.9548 198.661 66.9351 198.182V198.182Z" fill="#EAC5B0"/>
<path d="M27.9766 160.787V160.851C26.9701 166.085 26.5603 171.415 26.7551 176.741C26.8574 179.202 28.3156 179.821 30.1398 181.361L36.4034 186.654C38.6448 183.946 41.1444 181.463 43.8669 179.24C42.7907 177.85 40.1647 175.303 40.5199 173.645C40.9342 171.69 43.0059 169.284 43.8938 167.431C45.9763 163.075 47.6606 158.536 49.2749 154.002C51.6174 147.541 53.9098 141.08 56.1519 134.618C56.7857 133.056 57.1636 131.401 57.2711 129.718C57.2711 128.033 56.6792 126.256 55.3071 125.276C53.9349 124.296 51.8686 124.312 50.2489 125.018C48.6292 125.723 47.3216 126.983 46.1108 128.248C43.9498 130.548 41.9826 133.022 40.2293 135.647C38.615 138.097 37.146 140.67 35.7038 143.244L32.0017 149.84C31.2677 151.096 30.5978 152.388 29.9945 153.712C29.0612 155.988 28.3843 158.361 27.9766 160.787V160.787Z" fill="#A468DE"/>
<path d="M174.116 187.489C174.139 187.324 174.139 187.158 174.116 186.993C173.895 185.507 172.894 184.866 172.281 183.504C172.006 182.896 172.937 181.453 171.56 181.248C171.054 181.173 169.778 181.156 168.697 181.006C167.115 180.78 165.248 179.541 163.945 178.281C162.136 176.594 160.452 174.776 158.909 172.843C155.728 168.637 152.941 164.147 150.584 159.43C154.242 157.337 157.26 154.286 159.314 150.605C161.368 146.924 162.379 142.752 162.24 138.538C162.253 137.657 162.049 136.786 161.648 136.002C161.238 135.38 160.684 134.867 160.033 134.505C153.334 130.418 149.75 136.944 146.645 142.081C144.684 145.299 142.963 148.657 141.496 152.129C139.472 156.975 141.07 161.207 143.874 165.488C146.844 170.027 149.938 174.566 153.818 178.41C155.707 180.268 157.806 181.641 159.899 183.208C161.992 184.775 161.158 185.599 162.616 187.429C163.429 188.452 164.069 189.648 165.065 190.499C166.846 192.033 169.213 191.484 171.323 191.209C171.78 191.196 172.224 191.058 172.609 190.811C173.271 190.342 173.502 189.594 173.76 188.862C173.924 188.417 174.043 187.957 174.116 187.489V187.489Z" fill="#EAC5B0"/>
<path d="M164.353 113.565C155.744 119.364 148.958 128.071 144.955 137.617C143.152 141.925 140.112 145.323 139.305 150.083C138.529 154.901 139.17 159.842 141.15 164.303C144.497 171.965 150.836 177.894 157.439 183.014L161.889 176.284C162.237 175.921 162.439 175.442 162.457 174.94C162.475 174.437 162.307 173.946 161.986 173.559L155.636 162.106C155.147 161.351 154.821 160.502 154.678 159.613C154.458 157.125 157.051 155.198 157.423 152.759L158.149 153.346C157.923 153.162 171.952 138.172 172.753 137.251C175.826 133.735 178.979 130.074 180.287 125.594C183.123 116.036 172.899 107.809 164.353 113.565Z" fill="#F2A222"/>
<path d="M331.834 211.638C331.714 211.486 331.616 211.317 331.543 211.137C330.978 209.479 331.678 208.273 331.586 206.528C331.549 205.748 329.811 204.746 331.129 203.793C331.613 203.443 332.932 202.743 333.975 202.005C335.498 200.928 336.779 198.635 337.457 196.621C338.743 192.825 337.947 181.2 342.94 179.929C354.671 176.892 343.78 199.06 343.29 201.214C342.967 202.635 343.731 203.987 343.721 205.398C343.678 206.942 343.372 208.468 342.817 209.91C341.783 212.457 339.05 213.14 336.693 214.002C336.211 214.232 335.675 214.327 335.143 214.277C334.207 214.142 333.561 213.49 332.899 212.866C332.505 212.493 332.148 212.081 331.834 211.638V211.638Z" fill="#EAC5B0"/>
<path d="M343.608 128.27C344.022 128.846 344.469 129.713 345.131 130.709C348.612 135.932 350.162 143.906 351.389 149.964C354.037 162.922 353.776 176.307 350.625 189.153C350.565 189.637 350.323 190.08 349.947 190.391C349.507 190.588 349.01 190.613 348.553 190.461L339.803 188.684C339.164 188.611 338.554 188.374 338.033 187.995C337.091 187.171 337.215 185.701 337.387 184.463C338.536 176.343 338.637 168.109 337.689 159.963C337.242 156.119 335.283 151.391 335.536 147.579C335.746 144.17 337.721 140.493 337.995 136.761C338.157 134.527 338.404 131.199 339.986 129.428C342.074 127.107 342.784 127.123 343.608 128.27Z" fill="white"/>
<path d="M429 274.012L429.393 297.909C429.231 304.537 429.829 311.149 430.232 317.756C430.609 323.895 429.371 330.221 432.282 335.907C433.197 337.69 435.134 338.933 436.614 336.871C437.755 335.283 437.228 332.537 437.507 330.69C439.622 316.835 443.556 303.331 445.52 289.45C447.581 274.917 441.952 275.299 429 274.012Z" fill="#EAC5B0"/>
<path d="M430.361 331.821L428.822 335.805L436.377 342.46L443.303 342.746L445.541 339.09L436.232 330.991L430.361 331.821Z" fill="#1A3151"/>
<path d="M412.088 274.244L407.729 297.763C406.217 308.274 402.789 318.51 401.272 329.026C400.927 331.444 401.1 334.087 400.088 336.365C399.076 338.643 397.166 338.686 395.46 337.173C393.173 335.143 394.228 331.524 394.271 328.751C394.551 310.304 393.098 292.137 392.754 273.641C392.734 273.521 392.742 273.399 392.775 273.283C392.809 273.166 392.867 273.059 392.947 272.968C393.116 272.863 393.317 272.824 393.512 272.86C395.315 272.952 411.991 274.75 412.088 274.244Z" fill="#EAC5B0"/>
<path d="M394.228 332.801L391.833 336.338L397.693 344.528L404.371 346.37L407.374 343.316L400.136 333.323L394.228 332.801Z" fill="#1A3151"/>
<path d="M441.608 331.147L446.989 284.302L448.786 232.853L443.502 214.724L414.977 210.297L379.715 216.344L378.02 223.199L392.64 295.071V332.763L402.326 333.301L412.012 296.148L419.007 235.303L427.617 284.841L428.693 330.609L441.608 331.147Z" fill="#353A85"/>
<path d="M450.099 159.489C450.099 159.333 450.072 159.172 450.04 159.015C447.134 143.239 453.15 131.204 441.699 117.113C435.538 109.526 432.369 110.436 424.152 108.423C422.252 107.959 418.351 106.565 418.572 109.499C415.962 109.421 413.353 109.672 410.807 110.248L410.721 109.171C406.152 110.248 400.131 110.566 395.923 112.472C391.408 114.518 387.313 121.162 384.994 125.308C377.019 139.556 380.258 156.985 380.275 172.692C380.275 177.059 377.331 223.845 379.57 223.98C393.56 224.685 407.223 219.833 421.063 221.142C429.258 221.917 437.357 223.953 445.391 225.078C445.659 225.144 445.938 225.155 446.211 225.111C446.484 225.067 446.745 224.967 446.978 224.82C447.188 224.593 447.349 224.326 447.454 224.036C447.558 223.745 447.603 223.437 447.586 223.129C448.431 211.708 448.447 199.938 449.082 188.399C449.599 178.927 450.917 168.95 450.099 159.489Z" fill="#474EBB"/>
<path d="M423.587 42.6723L432.896 83.4599C435.474 94.7674 446.166 102.306 457.547 101.337C456.897 101.559 456.263 101.81 455.642 102.09C450.91 104.189 447.055 107.869 444.737 112.5C442.419 117.131 441.783 122.424 442.937 127.473L452.246 168.255L510.868 155.93L501.559 115.148C498.981 103.84 488.289 96.302 476.908 97.2712C477.557 97.0487 478.192 96.7974 478.813 96.5174C483.545 94.4187 487.4 90.7387 489.718 86.1078C492.036 81.4769 492.672 76.1835 491.517 71.1348L482.208 30.3525L423.587 42.6723Z" fill="white"/>
<path d="M489.457 32.474L417.802 47.5506C416.848 47.7526 415.854 47.5733 415.03 47.0512C414.207 46.529 413.62 45.7053 413.395 44.7561V44.7561C413.29 44.2897 413.278 43.807 413.362 43.3362C413.446 42.8654 413.622 42.4162 413.882 42.0148C414.142 41.6134 414.479 41.2681 414.874 40.9991C415.269 40.7301 415.714 40.5429 416.183 40.4484L487.837 25.3718C488.791 25.1698 489.785 25.3491 490.609 25.8713C491.432 26.3934 492.019 27.2171 492.244 28.1664V28.1664C492.349 28.6327 492.361 29.1155 492.277 29.5862C492.193 30.057 492.017 30.5063 491.757 30.9076C491.497 31.309 491.16 31.6543 490.765 31.9233C490.37 32.1923 489.925 32.3795 489.457 32.474V32.474Z" fill="#1A3151"/>
<path d="M518.122 158.052L446.467 173.128C445.514 173.33 444.519 173.151 443.695 172.629C442.872 172.107 442.285 171.283 442.06 170.334V170.334C441.955 169.867 441.943 169.385 442.027 168.914C442.111 168.443 442.287 167.994 442.547 167.592C442.807 167.191 443.144 166.846 443.539 166.577C443.934 166.308 444.379 166.12 444.848 166.026L516.502 150.949C517.456 150.747 518.45 150.927 519.274 151.449C520.097 151.971 520.684 152.795 520.909 153.744V153.744C521.014 154.21 521.026 154.693 520.942 155.164C520.859 155.635 520.682 156.084 520.422 156.485C520.162 156.887 519.825 157.232 519.43 157.501C519.035 157.77 518.59 157.957 518.122 158.052V158.052Z" fill="#1A3151"/>
<path d="M500.245 118.691C494.794 103.544 483.23 103.043 481.702 102.893C481.319 102.884 480.949 102.748 480.651 102.506C480.353 102.265 480.144 101.931 480.056 101.557C480.006 101.34 480 101.116 480.039 100.897C480.078 100.677 480.16 100.468 480.281 100.282C480.402 100.095 480.559 99.9341 480.743 99.8092C480.927 99.6843 481.134 99.5976 481.352 99.5542C481.459 99.5316 481.567 99.519 481.675 99.5165H481.745C481.845 99.5188 481.944 99.5296 482.041 99.5488C496.801 101.719 500.245 118.691 500.245 118.691Z" fill="#F7F7F8"/>
<path d="M477.93 102.198C477.582 102.277 477.217 102.215 476.914 102.025C476.612 101.835 476.397 101.534 476.316 101.186C476.278 101.017 476.274 100.843 476.304 100.673C476.335 100.503 476.399 100.341 476.492 100.196C476.586 100.051 476.708 99.9265 476.85 99.8292C476.993 99.7319 477.153 99.6641 477.322 99.6296C477.67 99.5506 478.035 99.6127 478.338 99.8024C478.64 99.9921 478.856 100.294 478.936 100.642C478.974 100.81 478.978 100.985 478.948 101.154C478.917 101.324 478.854 101.487 478.76 101.631C478.666 101.776 478.544 101.901 478.402 101.998C478.26 102.096 478.099 102.164 477.93 102.198V102.198Z" fill="#F7F7F8"/>
<path d="M434.812 76.2662L436.291 82.7276C436.859 85.2183 437.911 87.5727 439.388 89.6561C440.866 91.7396 442.739 93.5112 444.901 94.8697C449.272 97.6651 454.564 98.6318 459.64 97.5619L460.63 97.3519C461.988 97.5143 463.264 98.0867 464.289 98.9928C465.313 99.8989 466.038 101.096 466.366 102.424L471.747 126.014C471.924 126.796 471.944 127.607 471.803 128.397C471.663 129.187 471.366 129.941 470.931 130.615C470.495 131.288 469.929 131.868 469.266 132.32C468.604 132.772 467.857 133.086 467.071 133.245L467.749 133.105C465.26 133.614 462.897 134.615 460.798 136.049C458.7 137.483 456.909 139.321 455.529 141.456C454.151 143.576 453.215 145.951 452.778 148.441C452.34 150.931 452.41 153.484 452.983 155.946L454.463 162.408L506.299 151.509L504.819 145.048C504.252 142.557 503.199 140.203 501.722 138.119C500.245 136.036 498.372 134.264 496.209 132.906C491.839 130.11 486.546 129.144 481.471 130.214L481.885 130.127C480.286 130.468 478.618 130.17 477.235 129.298C475.852 128.426 474.864 127.049 474.481 125.459L469.1 101.87C468.797 100.566 468.911 99.2 469.427 97.965C469.943 96.7301 470.833 95.6887 471.973 94.9881L473.361 94.6974C475.852 94.1887 478.216 93.1881 480.315 91.7541C482.414 90.3201 484.207 88.4815 485.587 86.346C486.965 84.2269 487.901 81.8511 488.338 79.3611C488.775 76.8712 488.706 74.3185 488.132 71.8563L486.653 65.3949L434.812 76.2662Z" fill="#F2A222"/>
<path d="M408.326 129.228C407.314 135.151 407.718 141.171 408.121 147.143C408.294 149.662 408.471 152.226 409.343 154.595C410.419 157.54 412.502 159.979 414.374 162.51C418.598 168.196 423.118 202.242 425.465 208.919C427.386 201.628 428.117 166.613 430.039 159.322C431.335 154.39 432.643 149.404 432.729 144.31C432.917 134.338 428.489 124.926 424.162 115.945C423.579 114.586 422.805 113.317 421.865 112.176C419.077 109.09 412.787 108.681 410.564 112.569C409.526 114.378 410.026 116.769 409.919 118.723C409.72 122.282 408.929 125.707 408.326 129.228Z" fill="white"/>
<path d="M421.913 131.264C422.758 136.584 422.753 142.033 423.528 147.417C423.942 150.352 424.604 153.249 425.142 156.167C426.633 164.443 427.133 172.859 427.639 181.248L427.935 186.218C427.999 187.268 428.425 188.996 427.935 189.987C427.445 190.978 426.121 191.112 425.153 191.511C423.729 192.07 422.406 192.857 421.235 193.842C419.083 193.212 417.673 191.107 417.178 188.937C416.683 186.767 416.957 184.506 417.178 182.293C419.301 162.869 418.925 143.253 416.059 123.925C415.198 124.312 414.154 123.677 413.756 122.848C413.434 121.955 413.348 120.994 413.508 120.058C413.508 120.22 417.985 120.058 418.351 120.026C421.042 119.892 421.817 120.516 421.822 123.483C420.52 124.108 420.746 125.998 421.122 127.398C421.451 128.69 421.709 129.961 421.913 131.264Z" fill="#353A85"/>
<path d="M477.532 152.145C477.363 152.05 477.182 151.98 476.994 151.935C475.207 151.639 474.099 152.559 472.302 152.764C471.5 152.856 470.187 151.256 469.439 152.764C469.165 153.302 468.68 154.783 468.104 155.995C467.265 157.734 465.145 159.43 463.218 160.464C455.62 164.508 447.145 166.381 438.724 167.997C438.249 168.125 437.751 168.138 437.271 168.034C436.432 167.781 435.974 166.904 435.592 166.112C433.815 162.449 431.702 158.96 429.28 155.688C427.128 152.769 424.642 149.969 421.434 148.268C418.227 146.566 414.159 146.114 411.006 147.934C409.824 148.618 408.822 149.573 408.082 150.721C407.342 151.869 406.885 153.176 406.75 154.535C406.147 161.25 414.821 165.87 419.341 169.494C423.602 172.922 428.097 176.047 432.794 178.847C433.352 179.229 433.982 179.494 434.645 179.627C435.364 179.672 436.085 179.564 436.76 179.31C445.633 176.65 454.216 173.225 462.777 169.618C465.129 168.621 466.662 166.516 468.847 165.617C470.241 165.041 471.747 165.617 473.184 165.342C474.751 165.036 476.254 164.464 477.629 163.651C480.05 162.165 480.293 159.242 480.755 156.705C480.901 156.177 480.901 155.619 480.755 155.09C480.459 154.159 479.679 153.609 478.937 153.044C478.499 152.699 478.028 152.398 477.532 152.145V152.145Z" fill="#EAC5B0"/>
<path d="M415.332 171.551C418.362 173.796 421.402 176.047 424.265 178.61C426.164 180.311 428.096 182.174 430.566 182.815C432.161 183.143 433.802 183.178 435.409 182.917C445.385 181.808 455.071 178.869 463.982 174.248C464.85 173.885 465.605 173.296 466.167 172.541C467.017 171.163 466.49 169.381 465.936 167.857L463.988 162.472C463.956 162.195 463.864 161.928 463.718 161.689C463.572 161.451 463.376 161.248 463.143 161.094C462.91 160.94 462.646 160.839 462.37 160.798C462.094 160.757 461.812 160.777 461.545 160.857C455.214 161.379 448.923 162.309 442.711 163.641C440.731 164.066 438.616 164.524 436.727 163.797C432.675 162.241 428.989 152.29 426.794 148.424C424.286 144.014 421.913 139.507 419.298 135.162C416.387 130.316 413.336 125.346 408.676 122.175C398.726 115.401 385.494 124.129 388.96 136.094C391.575 145.123 396.493 153.502 402.654 160.555C406.4 164.917 410.85 168.228 415.332 171.551Z" fill="#474EBB"/>
<path d="M424.663 79.2384C426.044 81.7683 426.805 84.5898 426.885 87.4714C426.917 88.236 426.971 89.1136 427.585 89.5659C428.198 90.0182 427.665 91.1059 428.166 90.4598C428.666 89.8136 430.372 87.5791 430.447 86.7606C430.63 84.8535 430.63 82.9332 430.447 81.0261C430.286 79.3677 429.947 77.6392 428.865 76.3739C428.183 75.6574 427.391 75.054 426.519 74.5862C425.337 73.7748 424.02 73.1821 422.629 72.8363C420.207 72.384 418.717 73.2562 420.858 74.947C422.394 76.1154 423.686 77.5733 424.663 79.2384V79.2384Z" fill="#212940"/>
<path d="M409.467 111.761C409.444 112.676 409.498 113.591 409.628 114.496C412.082 116.402 414.4 118.476 416.565 120.705C417.942 118.858 419.357 116.935 419.793 114.658C419.982 113.694 419.949 104.05 420.482 103.959C423.388 103.458 426.799 102.521 427.795 99.4789C428.059 98.4949 428.172 97.4762 428.128 96.4582L428.22 83.8046C428.316 82.3513 428.152 80.8924 427.736 79.4969C426.859 77.1224 424.636 75.7278 422.451 74.8178C416.882 72.5455 410.392 72.6371 405.232 75.8947C403.796 76.7253 402.606 77.9218 401.783 79.3623C400.567 81.6777 400.707 84.5368 400.911 87.2129L401.449 94.6167C401.648 97.4543 402.073 100.723 404.28 102.22C405.447 103.016 406.97 103.162 407.966 104.19C409.639 105.86 409.472 109.02 409.467 111.761Z" fill="#EAC5B0"/>
<path d="M429.162 94.7674C429.113 93.9867 428.774 91.6929 427.596 93.1521C427.315 93.5674 427.173 94.0616 427.192 94.5628C427.211 95.0648 427.158 95.567 427.036 96.0543C426.676 97.1312 425.476 97.632 424.41 97.6104C423.982 97.6182 423.558 97.5182 423.178 97.3197C422.82 97.0865 422.504 96.7954 422.242 96.4581L420.186 94.0997C419.007 92.7482 416.672 93.3297 415.085 93.5613C413.215 93.7381 411.431 94.4295 409.93 95.5589C409.779 95.6828 409.634 95.8066 409.483 95.9358C409.14 96.2584 408.756 96.5353 408.342 96.7597C406.927 97.4489 405.178 96.7274 404.188 95.4405C403.736 94.8482 403.311 94.089 402.606 93.992C402.321 93.9801 402.038 94.053 401.794 94.2015C401.55 94.35 401.355 94.5675 401.234 94.8266C400.978 95.3672 400.842 95.9569 400.836 96.5551C400.651 98.7344 401.031 100.925 401.939 102.914C403.984 107.103 407.939 107.62 411.915 107.523L416.629 107.41C419.503 107.34 422.548 107.222 424.959 105.553C427.111 104.077 428.365 101.573 428.882 98.9458C429.154 97.5709 429.248 96.1664 429.162 94.7674V94.7674ZM418.652 100.69C417.941 101.146 417.134 101.432 416.294 101.526C415.454 101.619 414.604 101.517 413.809 101.229C413.094 101.013 413.395 99.8073 414.116 100.023C414.767 100.268 415.466 100.356 416.157 100.28C416.847 100.204 417.511 99.9667 418.093 99.5865C418.695 99.2204 419.277 100.297 418.647 100.723L418.652 100.69Z" fill="#1A3151"/>
<path d="M429.759 71.9317C430.037 70.9101 430.242 69.8701 430.372 68.8195C429.395 69.1618 428.348 69.2525 427.327 69.0833V67.2633C427.327 66.7572 420.504 66.4072 419.949 66.3587C414.762 65.9334 410.021 65.5295 405.329 68.3133C401.32 70.6933 398.753 74.2363 398.14 78.8723C397.553 83.293 398.995 89.0598 401.551 92.7267C401.551 91.5529 400.863 88.7745 401.137 87.6599C401.312 86.5403 401.676 85.4587 402.213 84.4615C403.311 82.4747 404.904 80.8055 406.836 79.6154C409.928 77.7824 413.371 76.6211 416.941 76.207C420.17 75.7547 424.12 75.3401 427.311 76.207C428.844 76.6216 429.102 77.0039 430.033 75.4532C430.195 75.1786 431.497 71.9856 431.368 71.9856L429.759 71.9317Z" fill="#1A3151"/>
</g>
<defs>
<clipPath id="clip0">
<rect width="521" height="358" fill="white"/>
</clipPath>
</defs>
</svg>
