<svg width="659" height="428" viewBox="0 0 659 428" fill="none" xmlns="http://www.w3.org/2000/svg">
<path opacity="0.04" d="M151.48 305.938C138.14 306.236 124.794 306.464 111.459 306.52C87.6885 306.62 56.5358 301.651 38.7944 320.571C29.8599 330.097 32.8034 349.097 46.9719 352.466C50.9801 353.413 55.3007 353.313 59.0581 354.936C62.8156 356.56 65.8017 360.98 63.7147 364.354C62.65 366.076 60.5914 367.004 58.6228 367.728C46.1674 372.309 32.3632 372.891 19.9694 377.628C-9.47499 388.881 -4.39251 411.502 22.3781 418.799C46.4466 425.363 73.2172 424.478 98.0333 424.899C243.277 427.502 388.909 430.578 533.348 421.818C564.496 419.925 595.469 417.559 626.484 415.311C640.681 414.294 658.446 411.639 658.498 405.69C658.536 401.55 649.166 398.459 639.929 396.841C623.754 394.002 602.638 391.546 605.695 382.284C606.812 378.906 612.074 375.806 619.39 374.24C625.041 373.014 631.538 372.692 637.662 371.959C643.785 371.225 650.065 369.872 652.64 367.458C659.572 360.965 642.11 357.104 629.82 356.512C615.098 355.802 603.097 351.241 608.17 344.355C611.705 339.561 623.209 336.31 626.711 331.516C628.131 329.586 628.131 327.508 627.185 325.53C617.843 305.768 569.025 307.462 550.834 305.981C517.178 303.246 483.375 302.72 449.615 302.474C373.032 301.921 296.444 302.848 219.876 304.287C197.099 304.708 174.28 305.427 151.48 305.938Z" fill="#272525"/>
<path d="M616.691 373.804L617.287 379.748L606.488 387.144L600.194 381.929L605.296 375.262L616.095 367.865L616.691 373.804Z" fill="#426362"/>
<path d="M616.601 192.155L618.414 210.204L602.163 272.178L617.098 371.812L606.029 375.617L576.949 278.33L572.35 250.031L572.577 190.134L616.601 192.155Z" fill="#314963"/>
<path d="M531.491 212.182L554.599 379.133L565.176 379.142L567.182 272.145L586.509 197.062L531.491 212.182Z" fill="#314963"/>
<path d="M565.11 383.818L553.667 389.804L547.95 383.804L553.676 377.812L565.114 377.822L565.11 383.818Z" fill="#426362"/>
<path d="M545.797 103.5L515.511 133.313L451.644 112.681L445.993 122.647L517.971 170.486L547.198 142.541L545.797 103.5Z" fill="#66A76F"/>
<path d="M152.349 96.9789L202.705 96.4015L244.349 57.5967L253.341 65.6416L219.268 117.697L171.41 123.953C171.41 123.953 149.793 97.0877 152.349 96.9789Z" fill="#E89F40"/>
<path d="M163.901 218.022L153.963 286.167L119.417 374.661L105.693 370.875L121.783 284.747L124.149 226.54L163.901 218.022Z" fill="#414446"/>
<path d="M194.708 199.249L197.339 242.374L191.092 370.681L180.288 371.287L168.633 290.899L148.733 195.094L194.708 199.249Z" fill="#414446"/>
<path d="M180.606 375.839L192.616 381.026L198.13 374.855L191.959 369.342L180.279 369.999L180.606 375.839Z" fill="#426362"/>
<path d="M105.835 376.786L117.846 381.972L123.359 375.801L117.188 370.288L105.509 370.946L105.835 376.786Z" fill="#426362"/>
<path d="M140.854 107.239L130.859 108.814C130.148 106.22 129.644 103.572 129.354 100.897C126.401 100.651 122.899 100.041 121.688 97.3339C121.355 96.4591 121.171 95.5344 121.144 94.5986L120.169 83.0566C120.055 81.7268 119.947 80.3544 120.358 79.0814C121.073 76.8525 123.198 75.3997 125.346 74.4249C130.788 71.9499 137.324 71.5855 142.714 74.1409C144.183 74.7729 145.461 75.7798 146.419 77.0608C147.801 79.0862 147.839 81.7079 147.839 84.1592C147.839 86.4244 147.839 88.6896 147.839 90.9548C147.839 93.5575 147.635 96.572 145.525 98.1005C144.403 98.9098 142.893 99.1558 141.952 100.169C140.295 101.957 141.337 104.849 140.854 107.239Z" fill="#EACDB0"/>
<path d="M164.175 61.9457C164.486 60.8817 164.869 59.8398 165.32 58.8272C166.314 56.6456 167.686 54.6296 168.363 52.3203C169.04 50.0109 168.723 47.1952 166.83 45.7187C165.609 44.7722 163.99 44.5593 162.429 44.512C157.302 44.361 152.229 45.5848 147.735 48.0565C143.476 50.4226 139.908 53.3898 134.877 52.8739C130.145 52.4007 127.211 53.8582 123.127 56.6598C118.707 59.6695 112.276 61.7849 108.504 65.3909C106.964 66.9469 105.827 68.8557 105.192 70.9513C104.063 74.5613 103.967 78.4152 104.916 82.0768C105.864 85.7383 107.819 89.0612 110.558 91.6693C111.818 92.8018 113.175 93.8216 114.614 94.7169C117.562 96.6098 121.116 98.976 124.518 99.0706C123.856 96.2312 118.953 87.9734 120.52 85.0914C123.009 80.5153 131.139 79.7628 135.663 79.5546C140.584 79.3275 145.601 81.5422 150.413 81.0453C153.873 80.6856 157.696 77.9456 160.077 75.4848C162.997 72.4467 163.006 65.831 164.175 61.9457Z" fill="#3A3029"/>
<path d="M105.83 230.236C107.061 238.058 109.195 248.512 112.257 248.36C112.825 248.271 113.351 248.006 113.762 247.603C118.428 243.846 121.376 239.213 125.985 235.564C130.817 231.74 136.661 229.119 142.473 226.975C151.173 223.68 160.128 221.098 169.248 219.257C179.143 217.297 198.81 215.778 198.81 215.778C204.22 213.838 209.222 210.956 214.228 208.207C222.86 203.474 231.738 199.111 239.593 193.272C242.111 191.379 249.006 185.96 245.618 182.771C243.053 180.357 235.708 179.751 232.244 178.606C224.502 176.051 216.935 172.927 210.002 168.735C200.355 162.94 192.282 154.859 186.497 145.206C183.638 140.35 181.145 135.289 179.039 130.062C177.875 127.251 176.786 124.407 175.726 121.544C175.125 119.926 173.994 113.589 172.579 112.761C158.255 104.333 152.964 95.7626 138.322 100.675C114.547 108.653 107.7 113.23 103.071 131.402C101.212 138.708 100.303 157.595 100.431 165.067C100.587 174.115 100.852 183.163 101.42 192.193C102.049 202.268 103.048 212.324 104.666 222.285C104.865 223.397 105.248 226.54 105.83 230.236Z" fill="#F2A222"/>
<path d="M118.745 96.3401L104.273 121.483L165.793 118.17L173.365 102.554L118.745 96.3401Z" fill="#415B59"/>
<path d="M149.387 95.7344L136.591 102.189L116.104 121.01L130.07 217.936L167.658 206.65L146.453 126.83L171.472 95.9284L149.387 95.7344Z" fill="#426362"/>
<path d="M257.515 143.294C257.364 143.284 257.214 143.255 257.07 143.209C255.783 142.79 254.612 142.074 253.654 141.117C252.696 140.161 251.978 138.992 251.557 137.705C251.129 136.423 251.015 135.057 251.223 133.722C251.431 132.387 251.956 131.12 252.754 130.029C256.668 124.606 258.367 119.036 257.548 114.347C256.928 110.816 254.874 107.835 251.434 105.488C249.194 103.976 246.592 103.085 243.895 102.909C238.075 102.502 232.377 105.275 230.049 109.6C225.955 117.224 227.787 122.268 231.099 129.055C231.657 130.181 231.937 131.424 231.914 132.681C231.892 133.937 231.569 135.17 230.971 136.276C230.237 137.564 229.208 138.66 227.97 139.475C226.731 140.29 225.318 140.801 223.845 140.966C223.719 140.978 223.592 140.978 223.466 140.966L151.123 135.973C148.05 144.496 146.567 153.51 146.746 162.569C146.968 172.511 149.162 182.31 153.201 191.398C157.151 200.302 162.905 208.289 170.1 214.856C182.655 226.18 198.399 232.905 216.897 234.836C228.799 236.08 240.999 237.031 251.76 237.874H251.855C266.629 239.028 282.615 240.207 300.773 241.48L304.085 241.712L306.144 212.343C305.825 211.465 305.259 210.698 304.514 210.134C303.77 209.57 302.878 209.232 301.946 209.163C301.117 209.107 300.288 209.27 299.542 209.636C294.692 211.974 289.922 214.042 284.896 213.692C282.194 213.496 279.587 212.611 277.324 211.122C272.782 208.103 269.621 203.406 268.535 198.061C267.45 192.715 268.527 187.158 271.532 182.605C275.379 176.997 280.793 174.272 287.186 174.721C291.8 175.043 296.722 177.016 301.416 180.4C302.134 180.927 302.985 181.241 303.872 181.309C304.813 181.361 305.75 181.143 306.57 180.679C307.391 180.215 308.061 179.525 308.501 178.692L310.725 146.957L295.633 145.897L257.515 143.294Z" fill="#A26DE3"/>
<path d="M443.622 82.6779C436.622 81.5654 429.5 81.457 422.469 82.3562H422.251C421.726 82.4745 421.177 82.6117 420.614 82.7631C420.343 82.8335 420.061 82.8431 419.786 82.7912C419.511 82.7393 419.251 82.6273 419.025 82.463C418.799 82.2988 418.612 82.0865 418.478 81.8413C418.343 81.5962 418.265 81.3243 418.248 81.0453C417.289 64.984 411.783 49.5265 402.371 36.4765C396.026 26.9822 387.885 18.8204 378.407 12.4507C369.013 6.12966 358.355 1.93099 347.174 0.1467L346.847 0.0946373L346.213 0L338.707 47.659C339.011 48.4655 339.52 49.1788 340.184 49.7283C340.848 50.2778 341.644 50.6443 342.493 50.7917C343.38 50.9317 344.288 50.8151 345.11 50.4557C350.467 48.1748 355.72 47.3514 360.306 48.0896C366.614 49.0881 371.266 52.9497 373.76 59.2531C375.674 64.3581 375.486 70.0137 373.239 74.9809C370.991 79.9481 366.866 83.822 361.768 85.7539C359.216 86.7075 356.462 86.9878 353.77 86.5679C348.811 85.7681 344.632 82.6779 340.416 79.3653C339.773 78.8432 339.004 78.4989 338.187 78.3668C337.33 78.2439 336.455 78.3484 335.651 78.6698C334.848 78.9912 334.142 79.5183 333.606 80.1982L326.162 127.824L394.728 138.798C395.918 138.365 396.892 137.486 397.445 136.347C397.745 135.734 397.909 135.063 397.925 134.381C397.94 133.699 397.807 133.021 397.535 132.395C394.525 125.297 394.104 118.435 396.347 113.097C398.145 108.838 401.524 105.677 406.379 103.765C409.656 102.493 413.212 102.118 416.681 102.681C424.097 103.855 430.452 109.013 432.861 115.813C435.88 124.332 431.735 130.507 426.425 137.109C426.005 137.626 425.699 138.227 425.526 138.871C425.354 139.516 425.32 140.189 425.427 140.847C425.622 142.065 426.271 143.164 427.244 143.923L509.51 156.975C509.05 148.683 507.328 140.509 504.404 132.736C494.4 106.231 471.112 87.0459 443.622 82.6779Z" fill="#6D78E3"/>
<path d="M428.535 159.781C428.274 159.739 428.024 159.642 427.802 159.497C426.797 158.837 425.941 157.974 425.289 156.964C424.637 155.953 424.203 154.817 424.016 153.629C423.823 152.448 423.884 151.24 424.193 150.084C424.502 148.928 425.053 147.851 425.81 146.924C430.57 141.004 434.025 135.945 431.663 129.249C429.718 123.731 424.541 119.538 418.474 118.568C415.672 118.105 412.796 118.399 410.146 119.42C406.27 120.939 403.596 123.381 402.205 126.684C400.354 131.071 400.785 136.877 403.359 143.043C403.846 144.169 404.081 145.387 404.048 146.613C404.015 147.839 403.716 149.043 403.17 150.142C402.63 151.245 401.861 152.22 400.913 153.001C399.966 153.782 398.862 154.351 397.676 154.67C397.419 154.74 397.149 154.755 396.886 154.713L327.965 143.673L322.892 175.379C322.857 175.588 322.789 175.789 322.688 175.975C322.077 177.107 321.218 178.086 320.176 178.84C319.134 179.594 317.936 180.103 316.67 180.33C315.405 180.558 314.104 180.497 312.865 180.153C311.626 179.808 310.48 179.189 309.513 178.341C305.671 175 301.596 172.909 297.73 172.289C292.728 171.489 288.431 173.235 284.953 177.428C282.21 180.904 280.948 185.321 281.44 189.721C281.933 194.121 284.14 198.15 287.584 200.933C289.208 202.229 291.137 203.088 293.187 203.427C297.247 204.076 301.658 202.594 306.201 200.886C307.371 200.442 308.624 200.259 309.872 200.352C311.12 200.444 312.333 200.809 313.425 201.421C314.517 202.033 315.461 202.876 316.192 203.893C316.922 204.909 317.421 206.073 317.653 207.303C317.691 207.519 317.691 207.74 317.653 207.956L312.921 237.382C325.546 239.393 339.024 241.518 356.609 244.267C370.404 246.425 385.069 248.701 400.198 251.034L401.566 251.252C403.847 251.616 406.213 252.028 408.3 252.392H408.38C410.638 252.785 412.971 253.187 415.294 253.561C421.584 254.569 429.018 255.549 436.296 255.184C455.273 254.238 473.478 246.046 487.557 232.115C501.866 218.004 510.477 199.117 511.743 179.061C511.862 177.139 511.914 175.142 511.89 173.122L428.535 159.781Z" fill="#6890D9"/>
<path d="M341.508 64.7661C337.59 64.4916 333.137 65.6179 328.622 68.0219C327.541 68.6025 326.347 68.9439 325.122 69.023C323.897 69.1021 322.669 68.9171 321.521 68.4805C320.374 68.0439 319.334 67.3659 318.471 66.4924C317.609 65.6189 316.944 64.5702 316.522 63.4174C316.43 63.168 316.391 62.902 316.408 62.6366L319.721 14.2205C319.129 14.2205 318.547 14.2205 317.96 14.2205C308.387 14.3684 298.918 16.2375 290.007 19.7383C281.16 23.2242 272.952 28.1509 265.716 34.3185L265.664 34.3611C248.408 47.8242 237.037 67.4477 233.938 89.1138C233.898 89.3907 233.797 89.6553 233.643 89.8885C233.488 90.1218 233.284 90.3178 233.044 90.4625C232.708 90.6643 232.318 90.7569 231.927 90.7275C231.766 90.7132 231.607 90.6782 231.454 90.6234C227.292 89.144 222.95 88.235 218.544 87.9212C217.688 87.8597 216.822 87.8219 215.965 87.8077C199.573 87.5427 180.946 95.545 168.491 108.194C161.699 115.141 156.288 123.313 152.543 132.277L223.527 137.189C224.373 137.082 225.184 136.782 225.896 136.314C226.609 135.846 227.205 135.221 227.64 134.487C227.956 133.908 228.127 133.261 228.137 132.601C228.147 131.941 227.996 131.289 227.697 130.701C224.015 123.106 221.791 117.015 226.722 107.811C229.784 102.099 236.797 98.6115 244.174 99.1273C247.541 99.3505 250.788 100.464 253.582 102.355C257.893 105.298 260.487 109.112 261.286 113.684C262.285 119.386 260.34 125.988 255.835 132.234C255.393 132.84 255.102 133.543 254.986 134.283C254.869 135.024 254.929 135.781 255.163 136.494C255.387 137.178 255.761 137.805 256.258 138.326C256.755 138.848 257.362 139.252 258.035 139.508L295.894 142.111L310.919 143.133L314.231 94.5891C314.249 94.3246 314.321 94.0666 314.444 93.8319C315.229 92.363 316.422 91.1532 317.88 90.3493C319.339 89.5454 320.999 89.182 322.66 89.3031C324.14 89.4051 325.568 89.8947 326.8 90.7228C330.832 93.4013 334.793 95.8289 338.882 96.1176C340.967 96.2523 343.051 95.8482 344.934 94.944C348.914 93.0032 351.968 89.5717 353.434 85.3938C354.9 81.216 354.66 76.6286 352.766 72.6265C350.325 67.7664 346.539 65.121 341.508 64.7661Z" fill="#7D6CCC"/>
<path d="M104.274 121.483L79.1924 156.502L86.7641 170.699L140.712 191.994L144.971 182.529L104.274 156.975L119.417 143.725L116.104 121.01L104.274 121.483Z" fill="#FDB94C"/>
<path d="M144.266 184.101L147.811 181.11L161.534 185.842L158.222 192.941L149.704 191.521L146.864 193.414L141.214 190.877L144.266 184.101Z" fill="#EACDB0"/>
<path d="M544.812 104.413C551.343 97.1352 569.799 98.0675 579.23 96.6809C584.247 117.2 591.061 137.421 598.709 157.089C605.301 174.087 615.461 190.106 621.424 207.171C626.757 222.385 635.024 232.678 649.041 241.579C651.228 242.966 653.773 244.811 653.565 247.395C653.437 248.957 652.292 250.234 651.152 251.28C639.875 261.767 623.875 265.032 608.703 267.517C597.182 269.41 585.628 271.096 574.044 272.576C558.957 274.506 541.954 275.183 527.842 268.317C526.953 267.881 525.983 267.299 525.774 266.324C525.599 265.491 526.049 264.668 526.442 263.916C533.578 250.159 529.527 229.725 529.139 214.898C528.699 198.165 528.263 181.384 529.811 164.736C530.817 153.924 532.656 143.205 535.31 132.675C537.326 124.663 539.242 111.749 544.263 105.076C544.443 104.843 544.626 104.622 544.812 104.413Z" fill="#66A76F"/>
<path d="M560.396 94.0921L561.588 92.644L552.422 94.6505C553.056 96.0702 552.583 100.178 553.496 100.992C553.854 101.261 554.28 101.425 554.727 101.465C556.312 101.735 560.358 102.553 561.56 101.37C562.682 100.268 562.615 95.9472 562.682 94.4565C562.696 94.1915 561.711 94.0353 560.396 94.0921Z" fill="#EACDB0"/>
<path d="M555.735 64.1178C552.603 65.1526 549.843 67.0822 547.795 69.6682C545.747 72.2543 544.501 75.3836 544.212 78.6696C542.416 77.1098 541.02 75.1417 540.142 72.9306C539.265 70.7195 538.931 68.3301 539.168 65.963C539.405 63.596 540.207 61.3205 541.507 59.3277C542.806 57.335 544.565 55.6832 546.635 54.5112C550.639 56.4562 553.814 56.7023 555.267 60.9093L555.735 64.1178Z" fill="#E89F40"/>
<path d="M553.368 97.2014C548.285 95.7297 544.485 91.2056 542.801 86.1894C541.116 81.1731 541.296 75.7168 542.096 70.4876C544.76 53.0869 566.462 55.3158 573.154 69.0963C579.003 81.1069 568.166 101.484 553.368 97.2014Z" fill="#EACDB0"/>
<path d="M572.814 109.401L536.451 156.663L469.011 130.379L460.143 145.144L536.806 184.422L589.372 143.971L590.815 113.457L572.814 109.401Z" fill="#75B47E"/>
<path d="M467.714 132.84L456.655 124.805L442.869 126.163L442.112 133.157L456.503 140.412H462.982L467.714 132.84Z" fill="#EACDB0"/>
<path d="M577.574 211.983C574.205 210.176 573.841 205.628 572.473 202.045C571.105 198.463 565.848 195.539 563.865 198.799C558.3 197.484 554.594 191.871 553.714 186.225C552.834 180.58 554.187 174.868 555.56 169.293C558.569 156.989 561.238 144.534 564.603 132.32C567.783 120.773 567.845 108.616 567.991 96.8276C568.067 90.9264 565.758 85.1956 562.497 80.2645C559.237 75.3335 555.053 71.1217 550.931 66.8958C549.218 65.1401 547.439 63.2614 546.852 60.8763C546.199 58.2404 547.165 55.401 548.845 53.2668C551.428 49.9826 554.571 48.2837 558.636 48.0612C572.908 47.2189 583.944 55.2922 588.487 69.0963C592.33 80.7709 591.156 93.3966 590.82 105.682C590.318 124.138 594.842 145.324 606.186 160.136C610.809 166.17 615.84 172.213 617.889 179.539C619.938 186.864 618.045 195.946 611.415 199.665C608.826 201.118 605.708 201.672 603.479 203.635C602.929 204.088 602.483 204.654 602.173 205.295C601.862 205.935 601.694 206.636 601.679 207.348C601.664 208.06 601.803 208.766 602.087 209.419C602.371 210.072 602.792 210.657 603.323 211.131C600.393 216.673 596.787 212.835 592.808 211.936C587.957 210.857 581.885 214.297 577.574 211.983Z" fill="#F2A222"/>
<path d="M322.323 366.658L326.119 373.293L325.641 377.562L319.957 378.508L311.425 373.293L314.269 355.287L322.323 352.916V366.658Z" fill="#59595B"/>
<path d="M326.118 306.468C326.118 306.468 317.127 323.055 329.431 333.485C341.735 343.915 363.082 360.502 363.082 360.502L322.796 351.51L319.957 365.707C319.957 365.707 381.112 386.089 382.532 384.67C383.952 383.25 399.119 369.999 399.119 369.999L366.405 298.409L330.382 302.668L326.118 306.468Z" fill="#F2A222"/>
<path d="M421.839 296.038C419.688 293.75 417.666 291.344 415.782 288.831L404.543 278.122L389.494 245.237L391.908 223.918C391.908 223.918 394.368 221.363 397.43 218.291C394.529 214.122 391.136 211.349 384.326 210.611C355.644 207.516 357.267 209.257 347.519 221.116C343.596 225.882 336.355 239.572 333.852 245.142C330.818 251.905 327.87 258.7 325.144 265.586C322.106 273.271 319.347 281.07 317.099 289.011C316.849 289.891 316.044 292.323 315.206 295.295C313.583 300.884 311.757 308.295 313.086 310.439C313.777 312.227 315.599 314.13 320.005 315.01C329.47 316.903 337.065 316.903 347.495 311.697C357.925 306.492 375.193 310.183 375.193 310.183C377.938 310.935 380.81 311.678 383.867 312.36C406.109 317.315 417.576 303.705 421.182 301.234C424.333 299.072 421.891 296.057 421.891 296.057L421.839 296.038Z" fill="#A34B70"/>
<path d="M411.367 369.502L420.907 375.863V380.235L412.559 381.825L399.441 375.465L400.634 369.502H411.367Z" fill="#59595B"/>
<path d="M377.058 207.289L367.503 208.448C366.916 205.959 366.528 203.427 366.344 200.877C363.542 200.541 360.239 199.845 359.179 197.228C358.893 196.385 358.751 195.501 358.758 194.611L358.228 183.608C358.166 182.34 358.109 181.034 358.54 179.823C359.297 177.726 361.379 176.42 363.438 175.564C368.696 173.396 374.919 173.249 379.958 175.885C381.335 176.535 382.516 177.536 383.385 178.786C384.629 180.76 384.582 183.254 384.497 185.587L384.255 192.046C384.161 194.521 383.867 197.379 381.813 198.757C380.72 199.49 379.277 199.67 378.349 200.597C376.707 202.249 377.597 205.032 377.058 207.289Z" fill="#EACDB0"/>
<path d="M365.525 312.109L423.732 285.135L436.982 302.195L414.234 371.864L399.091 369.971L403.355 328.284C403.355 328.284 390.578 339.168 367.81 338.222C357.399 327.811 357.399 328.284 357.399 328.284L365.525 312.109Z" fill="#F2A222"/>
<path d="M445.065 252.473L403.828 248.308L391.68 224.022L362.657 219.915L392.944 269.13L447.29 263.291L445.065 252.473Z" fill="#B66084"/>
<path d="M356.912 197.133L350.008 218.187L401.808 225.253L401.377 211.931L356.912 197.133Z" fill="#2E4661"/>
<path d="M382.992 199.887L371.97 202.552L354.13 214.416L346.075 290.497L377.053 288.585L375.122 223.298L392.092 214.799L396.886 209.986L382.992 199.887Z" fill="#344E67"/>
<path d="M376.83 174.707L358.232 179.922L358.819 196.035L345.824 190.939L342.284 163.184L380.966 144.794L397.321 164.954L382.991 178.029L376.83 174.707Z" fill="#363636"/>
<path d="M445.732 254.829L450.678 247.362L458.723 241.683L460.142 244.996L457.303 248.782L463.928 248.308L461.089 258.719L447.507 263.475L445.732 254.829Z" fill="#EACDB0"/>
<path d="M244.027 59.5086L243.876 51.918L249.082 43.3999L261.385 47.659L258.073 54.7574L246.531 55.3537L244.027 59.5086Z" fill="#EACDB0"/>
</svg>
