<svg xmlns="http://www.w3.org/2000/svg" width="144" height="128" fill="none" viewBox="0 0 144 128">
    <path fill="#4B7E8F" fill-opacity=".7" fill-rule="evenodd" d="M108.93 109.204a63.591 63.591 0 0 1-22.58 14.654v-.006a63.551 63.551 0 0 1-31.286 3.549A63.64 63.64 0 0 1 25.9 115.494 63.96 63.96 0 0 1 5.968 91.033 64.204 64.204 0 0 1 9.799 29.91a63.866 63.866 0 0 1 22.83-21.761A63.587 63.587 0 0 1 63.049.004a63.58 63.58 0 0 1 30.596 7.457l-.087-.221L144 32.936l-20.453 53.78-.087-.22a63.88 63.88 0 0 1-14.53 22.708zM92.004 88.721a34.41 34.41 0 0 1-12.232 8.014v-.003a34.118 34.118 0 0 1-16.946 1.94 34.29 34.29 0 0 1-15.797-6.511 34.908 34.908 0 0 1-10.797-13.377 35.404 35.404 0 0 1-3.164-16.982 35.323 35.323 0 0 1 5.24-16.445 34.74 34.74 0 0 1 12.366-11.9 34.19 34.19 0 0 1 16.478-4.455 34.175 34.175 0 0 1 16.573 4.078l-.047-.12L111 47.011l-11.079 29.41-.047-.12a34.97 34.97 0 0 1-7.87 12.419z" clip-rule="evenodd"/>
</svg>
