<svg id="Слой_1" data-name="Слой 1" xmlns="http://www.w3.org/2000/svg" viewBox="0 0 121.93 21.68"><defs><style>.cls-1,.cls-2{fill:none;stroke-miterlimit:10;stroke-width:4.16px;}.cls-1{stroke:#707acf;}.cls-2{stroke:#4b7e8f;}</style></defs><title>logoEqvola</title><g id="Documents"><g id="documents-2" data-name="documents"><g id="cabinet"><g id="nav-bar"><g id="logo3"><path id="E-v-la" d="M15.06,17.06H5V12.85h8.46c.73,0,.92-.35.92-.92V9.44c0-.57-.19-.92-.92-.92H5V5h9.54c.73,0,.92-.35.92-.92V1.47c0-.57-.19-.92-.92-.92H.92C.19.54,0,.9,0,1.47V20.59c0,.57.19.92.92.92H15.06c.73,0,.92-.35.92-.92V18C16,17.41,15.79,17.06,15.06,17.06ZM57.53.54H54.18c-.85,0-1.07.26-1.33,1l-4.26,13.2L44.3,1.56C44,.8,43.82.54,43,.54H39.5c-.6,0-.73.51-.57.92l6.79,19.09c.38.83.6,1,1.29,1h3c.69,0,.92-.13,1.29-1L58.1,1.47C58.25,1.05,58.13.54,57.53.54ZM98.89,17.06H89.8V1.47c0-.73-.35-.92-.92-.92H85.75c-.57,0-.92.19-.92.92V20.59c0,.57.19.92.92.92H98.89c.73,0,.92-.35.92-.92V18C99.8,17.41,99.61,17.06,98.89,17.06Zm23,3.57c.16.38.16.89-.54.89H118c-.69,0-.95-.19-1.2-1L115.91,18h-7.74l-.88,2.52c-.25.77-.51,1-1.2,1h-3.32c-.69,0-.69-.51-.54-.89l7-19.09a1.25,1.25,0,0,1,1.29-1h3c.69,0,1,.32,1.29,1Zm-12.28-7h4.74l-2.37-7Z" transform="translate(0 -0.21)"/><path id="Oval-3" class="cls-1" d="M36.79,19.73c-.08-.66-.15-1.33-.23-2-.05-.5-.11-1-.15-1.47-.24-2.34-.37-4.11-.37-5.18a8.21,8.21,0,1,0-16.41,0,8.3,8.3,0,0,0,8.2,8.4c1.09,0,2.88,0,5.18.11l1.68.06Z" transform="translate(0 -0.21)"/><path id="Oval-3-Copy" class="cls-2" d="M63.2,2.56l2,.23,1.47.15c2.34.24,4.11.37,5.18.37a8.3,8.3,0,0,1,8.4,8.2,8.4,8.4,0,0,1-16.8,0c0-1.09,0-2.88-.11-5.18,0-.54,0-1.1-.06-1.68S63.22,3.25,63.2,2.56Z" transform="translate(0 -0.21)"/></g></g></g></g></g></svg>