<svg width="400" height="357" viewBox="0 0 400 357" fill="none" xmlns="http://www.w3.org/2000/svg">
<path d="M101.283 187.012C101.17 186.909 101.043 186.823 100.906 186.756C99.6349 186.215 98.6478 186.692 97.2817 186.52C96.6724 186.443 95.9882 185.021 95.1614 186C94.8562 186.362 94.2331 187.354 93.59 188.13C92.6521 189.263 90.7778 190.133 89.1623 190.549C86.9661 191.155 84.7283 191.599 82.467 191.877C77.6344 192.351 72.7683 192.378 67.9306 191.959C68.0499 188.084 67.1091 184.249 65.2094 180.868C63.3097 177.486 60.523 174.686 57.1491 172.769C56.4633 172.335 55.681 172.076 54.8713 172.016C54.1851 172.039 53.5146 172.227 52.9168 172.564C46.4827 175.856 49.8796 181.805 52.416 186.713C53.9966 189.799 55.8027 192.764 57.8194 195.584C60.647 199.503 64.7379 200.284 69.4487 200.143C74.4408 199.994 79.4953 199.753 84.3616 198.543C86.7266 197.954 88.8107 196.963 91.0567 196.081C93.2764 195.209 93.541 196.245 95.6802 195.979C96.8737 195.831 98.1185 195.905 99.268 195.537C101.329 194.875 102.039 192.757 102.841 190.968C103.05 190.602 103.156 190.186 103.147 189.765C103.026 189.062 102.684 188.417 102.171 187.921C101.905 187.59 101.608 187.286 101.283 187.012Z" fill="#E5D1BD"/>
<path d="M50.6427 190.874C52.1023 193.104 53.6299 195.228 55.1813 197.218C57.4943 200.183 60.1014 203.342 63.7733 204.166C65.2032 204.422 66.6611 204.483 68.1075 204.349C74.9763 204.009 81.8336 203.497 88.6796 202.813C89.1882 199.233 89.151 195.597 88.5692 192.029C88.4059 191.03 88.1571 189.961 87.3897 189.299C86.2494 188.316 84.5219 188.649 83.067 189.037C80.6973 189.669 78.3277 190.301 75.9581 190.933C75.1892 191.138 74.3302 191.334 73.6313 190.953C73.1949 190.667 72.8389 190.274 72.597 189.812C67.3746 181.498 64.6533 173.571 61.751 164.272C60.4709 160.173 59.1136 155.936 56.2367 152.746C50.0938 145.935 38.7159 149.992 39.1157 159.468C39.5716 170.273 44.5067 181.501 50.6427 190.874Z" fill="#D67086"/>
<path d="M261.349 289.457L261.705 311.121C261.56 317.131 262.102 323.123 262.468 329.114C262.808 334.679 261.685 340.414 264.328 345.571C265.156 347.189 266.92 348.315 268.262 346.447C269.295 345.008 268.82 342.516 269.075 340.845C270.995 328.287 274.568 316.039 276.35 303.457C278.218 290.277 273.114 290.625 261.349 289.457Z" fill="#EACDB0"/>
<path d="M262.581 341.868L261.188 345.482L268.048 351.515L274.333 351.774L276.366 348.461L267.913 341.119L262.581 341.868Z" fill="#292949"/>
<path d="M245.987 289.668L242.031 310.972C240.66 320.502 237.544 329.783 236.173 339.313C235.858 341.504 236.016 343.902 235.1 345.969C234.203 347.991 232.447 348.071 230.898 346.699C228.822 344.861 229.78 341.577 229.818 339.066C230.072 322.341 228.755 305.853 228.438 289.101C228.421 288.993 228.427 288.882 228.458 288.776C228.488 288.671 228.541 288.573 228.614 288.49C228.767 288.394 228.95 288.359 229.127 288.391C230.756 288.5 245.901 290.128 245.987 289.668Z" fill="#EACDB0"/>
<path d="M229.769 342.758L227.595 345.964L232.916 353.388L238.98 355.057L241.709 352.288L235.133 343.229L229.769 342.758Z" fill="#292949"/>
<path d="M283.699 303.241L280.741 272.269L279.314 252.145L274.516 235.709L248.614 231.693L216.588 237.177L215.049 243.393L221.213 300.928L252.101 303.241L251.683 267.431L256.448 289.627L256.245 303.241H283.699Z" fill="#1A3151"/>
<path d="M223.387 175.196C223.344 176.241 223.313 177.286 223.296 178.33C222.921 199.574 224.094 221.09 224.228 242.511C235.215 240.793 246.308 239.847 257.427 239.679C260 239.64 271.696 241.445 273.324 239.91C275.534 237.828 273.104 238.22 273.266 235.507C273.475 231.997 271.787 229.123 272.424 224.963C273.174 220.075 274.665 215.24 275.524 210.352C277.247 200.548 278.281 190.635 278.619 180.687C278.917 171.866 278.597 162.719 274.8 154.75C265.436 135.098 235.249 135.452 226.966 155.971C224.513 162.048 223.661 168.627 223.387 175.196Z" fill="white"/>
<path d="M257.451 147.629L249.252 162.556C249.68 177.635 250.109 192.713 250.537 207.792C250.735 214.741 250.932 221.69 251.13 228.639C251.198 231.052 251.258 233.466 251.335 235.878C251.37 236.961 251.071 238.784 251.689 239.668C253.031 241.587 257.938 240.989 260.079 241.157C263.417 241.419 266.803 241.692 269.947 242.843C272.04 243.609 274.024 244.764 276.232 245.073C276.475 245.133 276.729 245.143 276.976 245.102C277.223 245.062 277.46 244.972 277.672 244.838C277.862 244.632 278.009 244.391 278.103 244.127C278.198 243.864 278.239 243.584 278.223 243.305C278.99 232.953 279.007 222.281 279.581 211.818C280.033 203.59 281.149 195.295 280.756 187.055C280.351 178.579 279.023 170.147 277.401 161.827C276.441 156.901 275.312 151.88 272.598 147.657C269.521 142.871 265.166 140.953 259.801 139.874C257.906 139.493 250.854 136.83 252.031 141.133C252.613 143.261 256.013 145.92 257.451 147.629Z" fill="#474EBB"/>
<path d="M239.613 149.033L247.812 163.96C247.64 163.96 246.772 200.549 246.702 203.019C246.435 212.411 246.168 221.803 245.901 231.195C245.827 233.806 246.178 236.864 245.667 239.43C244.953 243.013 241.178 242.307 237.961 242.597C230.924 243.231 223.515 244.431 216.459 244.075C214.423 243.972 217.102 201.538 217.098 197.578C217.085 183.336 214.144 167.534 221.386 154.619C223.493 150.861 227.207 144.837 231.308 142.981C235.129 141.252 240.599 140.958 244.747 139.989L244.963 142.674L239.613 149.033Z" fill="#474EBB"/>
<path d="M257.409 112.878C258.666 115.17 259.361 117.727 259.436 120.34C259.467 121.031 259.514 121.829 260.073 122.237C260.672 122.674 260.146 123.632 260.601 123.048C261.057 122.464 262.603 120.434 262.673 119.697C262.836 117.968 262.833 116.227 262.665 114.499C262.519 112.997 262.212 111.428 261.228 110.283C260.609 109.634 259.891 109.087 259.1 108.664C258.026 107.928 256.829 107.391 255.566 107.078C253.365 106.669 252.015 107.457 253.957 108.991C255.35 110.049 256.523 111.37 257.409 112.878Z" fill="#292949"/>
<path d="M243.657 142.363C243.672 143.426 243.453 144.53 244.393 145.355C244.873 145.723 245.447 145.948 246.049 146.005C247.591 146.247 249.168 146.135 250.66 145.678C251.282 145.517 251.857 145.214 252.342 144.792C252.562 144.57 252.73 144.303 252.833 144.008C252.937 143.714 252.973 143.4 252.94 143.089C252.971 142.288 253.133 141.472 253.238 140.659C253.468 138.881 253.571 137.088 253.623 135.296C256.26 134.844 259.361 133.992 260.263 131.233C260.502 130.34 260.604 129.416 260.564 128.493C260.592 124.67 260.62 120.847 260.648 117.024C260.736 115.704 260.587 114.379 260.207 113.112C259.412 110.958 257.391 109.675 255.409 108.868C250.351 106.807 244.457 106.889 239.789 109.82C238.485 110.574 237.405 111.659 236.658 112.966C235.555 115.066 235.694 117.659 235.865 120.082L236.34 126.793C236.521 129.366 236.908 132.327 238.908 133.686C239.97 134.407 241.342 134.54 242.257 135.473C243.855 137.103 243.094 139.537 243.566 141.512C243.627 141.792 243.658 142.077 243.657 142.363Z" fill="#EACDB0"/>
<path d="M261.492 126.969C261.449 126.26 261.139 124.182 260.072 125.488C259.817 125.865 259.689 126.313 259.706 126.767C259.724 127.221 259.677 127.676 259.567 128.117C259.237 129.1 258.149 129.547 257.18 129.53C256.79 129.537 256.405 129.446 256.06 129.265C255.735 129.054 255.448 128.79 255.21 128.484C254.588 127.771 253.966 127.058 253.343 126.344C252.274 125.118 250.152 125.648 248.711 125.836C247.014 125.996 245.394 126.622 244.031 127.645C243.894 127.756 243.76 127.871 243.626 127.987C243.315 128.279 242.966 128.53 242.59 128.733C241.307 129.357 239.719 128.706 238.82 127.539C238.407 127.004 238.023 126.315 237.383 126.226C237.124 126.215 236.868 126.281 236.646 126.416C236.425 126.551 236.248 126.748 236.138 126.982C235.906 127.473 235.783 128.008 235.777 128.551C235.61 130.526 235.955 132.511 236.78 134.314C238.638 138.112 242.231 138.578 245.841 138.493L250.122 138.392C252.731 138.331 255.489 138.223 257.687 136.708C259.625 135.371 260.778 133.099 261.25 130.719C261.49 129.484 261.571 128.224 261.492 126.969ZM251.946 132.353C251.299 132.773 250.564 133.038 249.797 133.127C249.03 133.216 248.253 133.126 247.527 132.865C246.876 132.669 247.152 131.577 247.804 131.773C248.395 131.995 249.029 132.075 249.657 132.006C250.284 131.937 250.886 131.722 251.415 131.377C251.99 130.99 252.518 131.968 251.946 132.353Z" fill="#292949"/>
<path d="M262.037 106.252C262.289 105.325 262.475 104.382 262.594 103.429C261.706 103.738 260.754 103.82 259.827 103.665L259.82 102.016C259.816 101.559 253.624 101.239 253.121 101.197C248.411 100.812 244.103 100.444 239.844 102.97C236.206 105.127 233.874 108.348 233.315 112.541C232.782 116.547 234.094 121.778 236.413 125.103C236.4 124.036 235.786 121.521 236.038 120.507C236.2 119.492 236.535 118.511 237.028 117.608C238.023 115.802 239.469 114.283 241.226 113.2C244.034 111.539 247.16 110.486 250.402 110.111C253.339 109.703 256.918 109.325 259.82 110.103C261.215 110.476 261.446 110.826 262.291 109.419C262.44 109.172 263.621 106.276 263.505 106.274C263.016 106.267 262.527 106.26 262.037 106.252Z" fill="#292949"/>
<path d="M280.877 161.916C279.512 161.815 278.204 161.334 277.1 160.525C272.569 157.529 270.6 152.05 268.109 147.45C266.624 144.707 265.169 140.637 262.866 138.511C262.434 138.112 257.479 135.76 257.521 135.606C257.523 135.592 257.772 134.252 257.772 134.252L259.118 134.512L259.917 133.964L256.312 132.102L258.679 128.118L264.05 127.983C265.614 130.97 266.438 134.425 268.694 136.99C269.648 138.075 270.772 138.995 271.815 139.995C273.607 141.712 275.153 143.656 276.773 145.529C278.849 147.929 282.008 149.887 283.223 152.898C283.901 154.576 285.017 158.358 284.242 160.041C283.917 160.64 283.428 161.134 282.832 161.466C282.236 161.798 281.558 161.954 280.877 161.916Z" fill="#EACDB0"/>
<path d="M284.823 155.772C285.156 155.79 285.476 155.91 285.739 156.116C285.974 156.408 286.097 156.773 286.087 157.148C286.436 161.409 285.775 165.683 285.071 169.901C284.092 175.768 282.847 181.986 278.727 186.279C276.353 188.753 272.51 190.399 269.485 188.782C266.839 187.368 265.87 184.092 265.458 181.123C264.251 172.28 265.724 163.278 269.687 155.279C269.913 154.729 270.269 154.241 270.724 153.857C271.903 153.007 275.582 154.342 276.973 154.557C279.59 154.962 282.206 155.367 284.823 155.772Z" fill="#474EBB"/>
<path d="M217.179 137.558C218.041 136.851 218.661 135.893 218.952 134.817C219.243 133.741 219.191 132.601 218.803 131.557C217.351 127.629 215.9 123.702 214.449 119.775C213.634 117.57 212.078 114.942 212.05 112.641C212 108.576 213.45 103.965 214.285 100.002C214.709 97.9894 214.865 95.1434 215.922 93.3679C216.12 93.0351 218.811 90.6193 218.755 90.5297C218.751 90.5216 218.342 89.7211 218.342 89.7211L217.54 90.1372L216.932 89.9409L218.862 88.0881L216.617 86.0127L213.196 86.934C212.768 89.1154 212.896 91.4541 211.951 93.4984C211.552 94.363 211.014 95.1555 210.542 95.983C209.732 97.4042 209.119 98.9234 208.447 100.411C207.796 101.851 206.861 103.167 206.24 104.593C204.855 107.773 203.493 110.964 202.119 114.149L208.485 134.921C208.749 135.777 209.22 136.556 209.855 137.188C210.491 137.82 211.272 138.287 212.13 138.547C212.989 138.807 213.898 138.853 214.778 138.681C215.658 138.509 216.482 138.123 217.179 137.558Z" fill="#EACDB0"/>
<path d="M232.324 139.511C229.753 138.416 227.384 136.9 225.312 135.027C224.393 134.176 220.237 126.303 220.994 126.095C220.93 126.116 220.866 126.136 220.803 126.156L220.243 126.364C220.218 126.361 220.195 126.358 220.167 126.356C218.926 126.23 216.689 127.463 215.48 127.847C211.554 129.094 207.666 130.518 203.632 131.209C203.693 134.74 204.256 138.245 205.303 141.618C206.206 144.706 207.751 147.231 208.925 150.141C210.2 153.118 211.668 156.009 213.319 158.795C213.708 159.486 217.619 167.532 217.393 167.571C219.659 167.183 221.407 165.391 222.798 163.561C226.066 159.265 227.621 153.443 231.723 149.936C234.91 147.213 239.076 146.948 238.668 141.445C236.486 141.047 234.357 140.398 232.324 139.511Z" fill="#474EBB"/>
<path d="M164.706 125.318C164.656 125.993 164.472 126.651 164.164 127.253C163.377 129.279 163.123 131.473 163.427 133.625C165.52 133.619 167.6 133.957 169.583 134.626C170.016 133.063 170.449 131.5 170.882 129.938C170.933 129.688 171.036 129.451 171.183 129.242C171.416 129.009 171.704 128.838 172.02 128.745C173.702 128.077 175.259 127.131 176.627 125.946C176.941 125.707 177.195 125.399 177.368 125.045C177.481 124.707 177.527 124.352 177.504 123.997C177.499 121.171 177.494 118.345 177.49 115.519C177.523 115.36 177.522 115.196 177.488 115.037C177.455 114.878 177.389 114.728 177.294 114.596C177.2 114.463 177.079 114.352 176.94 114.268C176.801 114.184 176.646 114.13 176.484 114.109C176.001 113.937 175.518 113.766 175.034 113.595C174.897 113.523 174.75 113.471 174.598 113.44C174.257 113.275 173.882 113.19 173.503 113.189C173.124 113.189 172.75 113.274 172.408 113.438C172.22 113.5 170.112 113.973 170.095 113.795C170.376 116.823 169.538 119.85 167.737 122.303C167.698 122.404 167.63 122.493 167.542 122.557C167.454 122.62 167.348 122.657 167.239 122.663C167.13 122.668 167.022 122.642 166.928 122.587C166.834 122.532 166.758 122.451 166.709 122.353C166.047 121.639 165.503 120.825 165.096 119.941C164.315 120.136 163.535 120.331 162.755 120.526C162.655 121.162 162.703 121.812 162.893 122.426C163.083 123.041 163.41 123.605 163.851 124.074C163.935 124.159 164.023 124.24 164.114 124.317C164.293 124.416 164.442 124.561 164.546 124.737C164.65 124.913 164.705 125.114 164.706 125.318Z" fill="#EACDB0"/>
<path d="M172.567 129.579L162.818 127.984L152.874 155.168L129.385 151.17L134.501 182.448L164.382 164.569L172.567 129.579Z" fill="#353A85"/>
<path d="M95.29 338.23C93.8076 338.329 92.4512 337.808 91.0146 337.647C91.0742 332.622 91.6478 327.617 92.7264 322.709C94.9608 325.187 96.8423 323.747 96.7662 328.403C96.7416 329.91 94.9993 335.937 95.29 338.23Z" fill="#E5D1BD"/>
<path d="M90.6901 335.125C89.0042 334.523 88.624 338.544 88.611 339.49C88.6515 340.057 88.623 340.627 88.5261 341.187C88.3242 341.781 88.0013 342.327 87.5777 342.79C86.7616 343.815 85.9454 344.84 85.1292 345.865C84.7368 346.306 84.4202 346.809 84.1923 347.353C83.9926 348.057 84.0454 348.809 84.3415 349.478C84.6376 350.148 85.1585 350.693 85.8141 351.019C90.3388 353.302 94.4718 347.773 95.4518 344.123C95.602 343.564 95.7116 342.994 95.8211 342.426C96.0476 341.249 96.9392 338.683 96.4716 337.534C95.9261 336.192 94.2737 337.164 93.1911 336.659C92.1866 336.189 91.3722 335.37 90.6901 335.125Z" fill="#292949"/>
<path d="M122.835 254.69C118.617 266.162 113.75 277.384 110.974 289.393C107.544 304.228 102.016 318.695 99.1781 333.564C97.3438 333.623 95.5077 333.545 93.6852 333.33C91.5964 333.084 88.2816 332.521 87.5278 330.243C87.1425 329.078 87.551 327.185 87.6098 325.975C87.798 322.101 88.0751 318.23 88.3603 314.362C89.1672 303.418 89.7204 292.339 91.7356 281.549C93.8555 270.199 95.8855 258.81 97.7506 247.461C98.7145 241.595 99.9017 235.766 101.362 230.004C101.738 228.519 105.657 213.215 106.426 213.337C115.475 214.739 124.172 217.856 132.049 222.519C132.821 222.977 133.567 223.523 133.836 224.338C134.024 225.094 133.945 225.891 133.612 226.595C131.236 233.649 128.068 240.265 125.534 247.292C124.652 249.736 123.758 252.181 122.835 254.69Z" fill="#5D66D3"/>
<path d="M123.631 337.407C125.017 337.941 126.467 337.848 127.886 338.12C129.325 333.305 130.268 328.356 130.699 323.35C127.828 325.052 126.461 323.118 125.147 327.585C124.722 329.032 124.591 335.304 123.631 337.407Z" fill="#E5D1BD"/>
<path d="M129.337 336.657C129.34 339.406 131.506 342.366 132.705 344.838C132.935 345.178 133.034 345.589 132.983 345.996C132.932 346.402 132.735 346.777 132.429 347.05C132.089 347.627 131.59 348.096 130.993 348.401C130.359 348.583 129.686 348.576 129.056 348.379C127.985 348.144 126.926 347.861 125.879 347.529C125.613 347.461 125.363 347.345 125.14 347.185C124.903 346.963 124.717 346.693 124.593 346.393C123.854 344.907 123.225 343.852 123.265 342.196C123.307 340.486 123.523 338.714 123.21 337.019C123.055 336.197 122.85 335.145 123.555 334.694C124.1 334.345 125.098 334.826 125.691 334.922C126.738 335.093 127.706 335.028 128.67 335.578C128.873 335.68 129.047 335.83 129.179 336.015C129.292 336.209 129.347 336.432 129.337 336.657Z" fill="#292949"/>
<path d="M122.203 249.463C122.815 261.669 124.121 273.829 123.196 286.12C122.053 301.303 123.025 316.758 121.308 331.796C123.041 332.398 124.818 332.869 126.622 333.205C128.689 333.591 132.022 334.038 133.42 332.087C134.134 331.09 134.308 329.16 134.612 327.988C135.586 324.233 136.473 320.455 137.353 316.678C139.841 305.989 142.611 295.247 143.899 284.347C145.254 272.88 146.707 261.403 148.305 250.014C149.13 244.127 149.732 238.209 150.054 232.273C150.136 230.744 150.951 214.968 150.181 214.856C141.124 213.506 131.893 213.898 122.984 216.011C122.11 216.218 121.235 216.517 120.736 217.216C120.332 217.881 120.17 218.666 120.278 219.437C120.446 226.878 121.502 234.136 121.829 241.598C121.943 244.193 122.069 246.793 122.203 249.463Z" fill="#5D66D3"/>
<path d="M117.064 151.51C116.915 151.56 116.768 151.613 116.62 151.669C114.164 152.6 112.075 154.275 110.031 155.925C106.962 158.402 105.45 159.488 104.264 163.156C103.225 166.622 102.399 170.149 101.789 173.716C98.3133 191.816 97.6416 209.84 95.1466 228.077C94.4675 233.041 93.9431 238.876 97.6179 242.286C104.138 237.216 112.334 236.924 120.243 236.916C125.796 236.911 131.226 235.115 136.793 235.734C142.113 236.326 146.76 234.997 152.159 235.348C153.461 235.433 155.119 235.419 155.633 234.221C153.764 228.625 153.796 222.608 153.373 216.725C152.28 201.508 147.233 186.905 145.197 171.791C144.504 166.653 144.135 158.126 140.152 154.237C135.824 150.011 125.952 149.925 120.39 150.751C119.261 150.905 118.148 151.159 117.064 151.51Z" fill="#353A85"/>
<path d="M121.195 151.254C121.293 151.443 121.42 151.615 121.573 151.764C122.244 152.385 123.095 152.779 124.003 152.889C125.184 153 126.375 152.917 127.528 152.641C129.099 152.341 129.043 151.423 129.271 149.998C129.395 149.22 129.473 148.436 129.532 147.65C129.564 147.22 129.397 145.678 129.672 145.376C129.858 145.171 130.617 145.24 130.95 145.067C131.478 144.756 131.92 144.318 132.235 143.793C132.709 142.976 133.068 142.097 133.302 141.182C133.781 139.612 134.259 138.042 134.738 136.472C135.281 134.884 135.663 133.245 135.876 131.58C136.113 129.064 135.706 125.511 133.805 123.671C132.07 121.993 129.54 121.405 127.219 121.108C124.13 120.679 120.986 121.313 118.306 122.908C117.178 123.547 116.239 124.473 115.586 125.592C114.61 127.401 114.684 129.659 114.789 131.77C114.886 133.719 114.983 135.667 115.08 137.616C115.191 139.857 115.47 142.44 117.151 143.656C118.044 144.301 119.211 144.439 119.975 145.266C120.932 146.303 120.87 147.858 120.91 149.172C120.85 149.879 120.947 150.59 121.195 151.254Z" fill="#EACDB0"/>
<path d="M130.922 126.063C131.028 126.244 131.116 126.435 131.185 126.633C131.543 127.666 131.301 128.832 131.651 129.868C132.206 131.511 134.124 132.498 134.413 134.207C134.65 135.605 133.694 136.934 133.613 138.349C133.525 139.895 134.516 141.359 134.362 142.885C134.109 144.419 133.504 145.874 132.595 147.137C132.84 146.807 135.062 146.925 135.638 146.573C136.521 146.034 136.622 145.695 136.884 144.775C137.145 143.863 136.943 142.963 137.35 142.028C137.848 140.881 138.873 140.039 139.232 138.816C139.722 137.147 138.833 135.386 138.902 133.648C139.007 131.017 141.283 128.539 140.457 126.039C139.973 124.572 138.547 123.634 137.745 122.314C137.136 121.311 136.912 120.129 136.489 119.034C136.067 117.94 135.341 116.845 134.215 116.513C133.573 116.404 132.925 116.328 132.275 116.285C131.167 116.079 130.246 115.315 129.178 114.954C127.65 114.438 124.955 115.981 124.063 117.275C123.178 118.559 123.625 119.65 124.53 120.785C126.036 122.676 129.678 123.913 130.922 126.063Z" fill="#292949"/>
<path d="M110.347 118.293C109.432 118.964 108.301 119.448 107.465 120.233C105.835 121.761 105.525 124.206 105.466 126.439C105.414 128.427 104.543 130.194 104.759 132.266C104.803 132.966 104.992 133.649 105.314 134.272C105.636 134.896 106.084 135.445 106.629 135.887C108.041 136.91 110.257 137.078 110.887 138.703C111.571 140.468 109.741 142.69 110.852 144.223C111.465 145.069 112.666 145.193 113.543 145.762C114.521 146.396 115.024 147.528 115.622 148.529C116.219 149.529 117.116 150.531 118.282 150.556C118.329 148.785 118.382 147.381 117.624 145.761C117.183 144.817 115.884 143.076 116.882 142.054C117.511 141.204 118.997 140.928 119.035 139.872C118.976 139.377 118.766 138.912 118.433 138.539C117.926 137.72 117.62 136.792 117.542 135.832C117.464 134.872 117.616 133.906 117.985 133.016C118.752 131.232 120.149 129.793 121.911 128.973C123.939 127.992 123.612 127.497 124.202 125.557C124.744 123.772 125.758 123.354 127.367 122.703C128.811 122.119 129.275 121.755 129.808 120.404C130.198 119.416 130.679 118.233 130.113 117.13C129.596 116.287 128.898 115.57 128.07 115.03C126.432 113.782 124.592 112.471 122.538 112.618C121.398 112.701 120.324 113.236 119.182 113.301C118.421 113.344 117.663 113.175 116.901 113.15C115.57 113.106 114.262 113.502 113.178 114.274C112.116 115.054 112.146 115.871 111.556 116.977C111.259 117.502 110.845 117.952 110.347 118.293Z" fill="#292949"/>
<path d="M114.947 111.009C115.147 109.775 115.018 108.166 113.839 107.75C113.192 107.521 112.468 107.771 111.796 107.635C110.364 107.344 109.876 105.612 109.125 104.359C109.027 104.162 108.872 103.999 108.679 103.893C108.375 103.818 108.056 103.827 107.755 103.917C106.33 104.09 105.247 102.685 103.905 102.176C103.061 101.896 102.141 101.961 101.344 102.356C100.548 102.751 99.9399 103.445 99.6536 104.286C99.4479 104.986 99.4838 105.738 99.2908 106.442C98.5088 109.292 94.3309 110.504 94.2252 113.457C94.1539 115.453 96.1089 117.365 95.3489 119.212C94.8629 120.393 93.3417 121.198 93.5157 122.463C93.6101 122.864 93.842 123.219 94.1711 123.467C94.5003 123.715 94.9059 123.84 95.3176 123.82C96.1449 123.753 96.9225 123.398 97.5147 122.817C98.498 121.96 99.2387 120.859 100.175 119.951C101.112 119.043 102.361 118.306 103.656 118.468C104.911 118.624 106.046 119.6 107.293 119.391C108.29 119.224 109.031 118.335 110.01 118.085C110.927 117.85 111.88 118.21 112.824 118.267C113.769 118.324 114.928 117.833 114.954 116.888C114.925 116.661 114.93 116.431 114.967 116.205C115.169 115.596 116.21 115.631 116.408 115.02C115.915 114.261 115.22 114.533 114.867 113.542C114.593 112.775 114.822 111.784 114.947 111.009Z" fill="#292949"/>
<path d="M304.094 167.723H109.673V302.57H304.094V167.723Z" fill="#EFEFEF"/>
<path opacity="0.2" d="M160.611 172.01H114.205V213.202C114.205 190.453 134.982 172.01 160.611 172.01Z" fill="#DDDAE8"/>
<g opacity="0.2">
<path opacity="0.2" d="M194.655 302.57H304.093V233.539C304.093 233.539 293.983 302.57 194.655 302.57Z" fill="#3B3387"/>
</g>
<path opacity="0.49" d="M284.139 73.778C284.131 73.7288 284.125 73.6791 284.115 73.6299C284.145 73.6545 284.171 73.6815 284.2 73.7059C284.18 73.7305 284.159 73.7532 284.139 73.778Z" fill="#808080"/>
<path d="M12.7097 345.875L12.3984 350.245L20.8348 355.237L25.5205 351.178L21.4579 346.497L13.021 341.506L12.7097 345.875Z" fill="#292949"/>
<path d="M8.36564 212.998L7.41992 226.268L21.0345 285.032L12.3521 344.435L20.9045 346.785L46.1764 275.706L47.0289 254.183L41.9709 209.806L8.36564 212.998Z" fill="#292949"/>
<path d="M63.2834 220.83L68.6884 276.486L64.3166 349.212L56.2361 349.901L45.4695 284.058L28.749 218.721L63.2834 220.83Z" fill="#292949"/>
<path d="M56.2002 348.937L56.5731 353.301L65.6843 356.921L69.6806 352.184L64.9385 348.191L56.2002 348.937Z" fill="#292949"/>
<path d="M0.594687 219.944C-0.0437521 225.006 -0.594616 231.861 1.33054 232.314C1.69872 232.36 2.07209 232.289 2.39839 232.113C5.9638 230.623 8.62026 228.28 12.1309 226.847C15.8106 225.345 19.9014 224.768 23.8845 224.48C29.8664 223.996 35.8779 224 41.8593 224.491C46.553 224.978 51.2194 225.7 55.8409 226.653C59.688 227.378 63.1794 228.902 67.1612 229.038C71.2629 229.186 75.3398 228.344 79.0469 226.584C79.1888 226.533 79.3102 226.438 79.3923 226.311C79.4473 226.156 79.4455 225.986 79.3873 225.832C78.7954 223.48 78.4335 221.175 77.1256 219.143C75.6651 216.873 74.749 214.087 73.7836 211.577C71.6993 206.319 70.0053 200.915 68.7153 195.409C66.7931 187.934 64.4712 180.607 62.6403 173.117C61.3714 167.926 60.269 162.662 58.3344 157.665C56.8197 153.752 53.996 147.973 50.085 145.914C48.7192 145.295 47.2549 144.923 45.7595 144.812L32.2609 143.019C30.6205 142.801 28.9128 142.589 27.3426 143.111C24.9897 143.893 23.4742 146.119 22.1349 148.204C16.1298 157.552 11.8494 167.858 8.93097 178.642C7.4074 184.272 5.9521 189.921 4.68501 195.612C3.27109 201.962 2.0879 208.365 1.30781 214.82C1.22111 215.537 0.898033 217.538 0.594687 219.944Z" fill="#66A76F"/>
<path d="M36.3614 168.654C36.2658 171.227 35.6355 173.745 35.0082 176.243C31.1881 191.454 27.368 206.666 23.5479 221.877C35.6766 223.029 47.8054 224.18 59.9342 225.331C60.0966 219.5 60.259 213.669 60.4214 207.838C60.6104 204.101 60.5443 200.356 60.2235 196.628C59.5694 190.626 57.6074 184.837 55.6577 179.102C52.0552 168.506 48.4527 157.909 44.8503 147.313C44.7258 146.649 44.3908 146.043 43.8949 145.585C43.399 145.126 42.7685 144.84 42.0967 144.767C38.6949 143.807 34.8365 142.892 31.3025 143.042C30.1032 146.117 32.7418 151.954 33.6255 155.022C34.9116 159.487 36.5362 163.955 36.3614 168.654Z" fill="#F7F7F7"/>
<path d="M40.8865 146.862C38.3861 146.493 35.8857 146.124 33.3854 145.754C33.4578 143.741 33.6911 141.737 34.083 139.761C34.0354 140 30.236 137.467 29.9302 136.95C29.0502 135.461 29.1723 133.127 28.9174 131.438C28.3742 127.84 27.9316 123.807 30.108 120.89C32.3619 117.869 36.6291 117.197 40.3894 117.488C45.1106 117.854 50.2257 119.77 52.2275 124.057C54.0355 127.93 50.7178 133.02 49.5294 136.794C48.9436 138.654 48.1255 140.762 46.2742 141.381C45.2913 141.71 44.1574 141.546 43.2571 142.059C41.6693 142.964 41.7668 145.262 40.8865 146.862Z" fill="#EACDB0"/>
<path d="M60.3705 117.857C60.9206 115.286 61.4708 112.715 62.0209 110.144C62.2937 109.203 62.3592 108.214 62.2127 107.245C61.8519 105.662 60.3964 104.545 58.8796 103.961C57.3627 103.378 55.721 103.191 54.1781 102.68C52.5313 102.135 50.9707 101.215 49.2389 101.112C45.9453 100.916 43.1201 103.694 39.8257 103.875C35.2644 104.126 31.3574 101.645 28.1001 106.64C27.5017 107.557 27.2478 108.659 26.7052 109.61C26.0043 110.84 24.8668 111.749 23.94 112.818C19.8653 117.522 20.2126 125.338 24.0663 130.083C25.9347 132.383 26.5914 134.356 29.3945 135.323C28.3566 132.515 31.1994 122.054 34.9249 121.234C35.9116 121.017 38.6555 122.479 39.696 122.743C42.0012 123.241 44.2349 124.025 46.3446 125.078C49.4932 126.816 52.8966 128.047 56.4293 128.725C56.6338 128.823 56.86 128.866 57.0861 128.85C57.3121 128.835 57.5303 128.761 57.7195 128.636C57.9087 128.512 58.0624 128.341 58.1659 128.139C58.2693 127.938 58.319 127.713 58.31 127.487C58.9968 124.277 59.6836 121.067 60.3705 117.857Z" fill="#292949"/>
<path d="M191.768 62.2473C190.916 56.5552 192.346 50.7571 195.746 46.1111C199.147 41.4652 204.244 38.3462 209.932 37.4309C209.86 37.0605 209.792 36.689 209.735 36.3123C208.935 30.9733 209.785 25.5174 212.171 20.6739C214.558 15.8303 218.368 11.83 223.091 9.20756C227.815 6.58515 233.227 5.46564 238.605 5.99869C243.983 6.53174 249.069 8.69194 253.185 12.1905C255.82 8.09185 259.617 4.87009 264.092 2.93615C268.568 1.00221 273.518 0.443759 278.312 1.33201C283.107 2.22026 287.528 4.51496 291.011 7.92344C294.495 11.3319 296.883 15.6997 297.871 20.4697C298.413 20.3462 298.961 20.2355 299.52 20.152C304.674 19.3822 309.933 20.4744 314.353 23.2322C318.773 25.99 322.063 30.2325 323.631 35.1967C325.199 40.161 324.943 45.5215 322.909 50.3141C320.875 55.1067 317.196 59.0171 312.533 61.3421C314.49 64.5128 315.574 68.1434 315.676 71.867C315.778 75.5905 314.894 79.2749 313.114 82.5478C311.334 85.8207 308.72 88.5661 305.537 90.5065C302.355 92.4469 298.715 93.5135 294.988 93.5985L298.339 115.984C298.47 116.957 297.281 117.531 296.854 117.089L279.671 99.3048C277.524 101.238 275.004 102.712 272.266 103.635C269.527 104.559 266.629 104.912 263.749 104.673C260.868 104.435 258.068 103.61 255.519 102.249C252.97 100.888 250.727 99.0195 248.929 96.7595C245.719 99.5 241.833 101.332 237.675 102.066C233.517 102.799 229.239 102.407 225.284 100.931C221.329 99.4542 217.841 96.9468 215.184 93.669C212.527 90.3911 210.796 86.4624 210.172 82.2907C210.088 81.7294 210.032 81.1706 209.988 80.6131C205.392 79.8838 201.147 77.7102 197.871 74.4078C194.594 71.1053 192.457 66.8458 191.768 62.2473Z" fill="white"/>
<path d="M233.375 58.3757C236.572 57.8981 237.32 62.8605 234.118 63.3389C230.921 63.8165 230.173 58.8541 233.375 58.3757Z" fill="#935FC4"/>
<path d="M255.732 55.0355C258.929 54.5579 259.677 59.5203 256.475 59.9987C253.278 60.4763 252.53 55.5139 255.732 55.0355Z" fill="#935FC4"/>
<path d="M283.678 50.8602C286.875 50.3826 287.624 55.3449 284.422 55.8234C281.225 56.3009 280.476 51.3385 283.678 50.8602Z" fill="#935FC4"/>
<path d="M287.849 194.823C285.119 197 282.389 199.177 279.659 201.355C281.049 203.481 282.41 205.626 283.727 207.801C284.386 208.89 282.611 209.75 281.958 208.67C280.715 206.616 279.429 204.592 278.119 202.583C275.46 204.704 272.802 206.824 270.143 208.944C269.152 209.735 267.862 208.24 268.857 207.446C271.583 205.272 274.309 203.098 277.035 200.924C275.434 198.518 273.785 196.145 272.087 193.804C271.345 192.781 272.831 191.483 273.579 192.513C275.294 194.875 276.958 197.269 278.573 199.697C281.237 197.573 283.9 195.449 286.563 193.325C287.554 192.535 288.844 194.03 287.849 194.823Z" fill="#66A76F"/>
<path d="M278.057 223.498C277.46 219.857 276.5 216.286 275.191 212.836C274.902 212.069 273.926 212.208 273.495 212.71C270.9 215.732 268.756 219.112 267.127 222.746C266.696 223.698 267.985 224.401 268.697 223.828C269.609 223.092 270.466 222.292 271.262 221.432C266.726 235.957 262.336 253.814 245.926 257.172C231.248 260.176 222.972 243.802 216.604 233.392C211.142 224.461 205.345 214.786 196.215 209.18C186.461 203.191 174.453 203.603 164.545 209.012C154.55 214.468 146.551 224.481 146.772 236.206C140.536 235.845 135.159 240.377 134.025 246.609C133.07 251.86 135.736 260.361 141.848 260.109C141.824 260.214 141.822 260.323 141.842 260.43C141.861 260.536 141.902 260.638 141.961 260.728C142.02 260.819 142.097 260.897 142.187 260.957C142.276 261.018 142.377 261.06 142.483 261.081C149.398 262.873 155.982 258.464 157.372 251.475C158.64 245.102 155.275 237.999 148.736 236.497C148.064 220.548 164.496 207.097 179.588 206.723C204.53 206.106 212.363 234.406 225.55 250.233C229.49 254.961 234.509 258.908 240.832 259.446C246.731 259.947 252.411 257.521 256.919 253.828C267.881 244.845 270.167 230.177 274.644 217.412C275.271 219.536 275.765 221.696 276.125 223.881C276.33 225.138 278.262 224.753 278.057 223.498ZM147.294 238.247C147.427 238.302 147.571 238.325 147.714 238.314C147.914 238.347 148.114 238.376 148.315 238.422C160.446 241.178 156.282 261.35 144.226 259.439C144.745 258.773 144.316 257.545 143.329 257.845C136.138 260.024 134.834 249.209 136.594 244.727C137.401 242.611 138.892 240.825 140.83 239.651C142.768 238.477 145.043 237.984 147.294 238.247Z" fill="#66A76F"/>
<path d="M137.182 252.327C137.073 251.715 137.015 251.095 137.008 250.473C136.865 243.296 140.567 238.519 147.957 240.251C151.762 241.143 153.972 245.931 153.954 249.509C153.942 251.913 153.216 254.558 151.183 255.83C147.876 257.899 140.061 258.138 137.85 254.232C137.524 253.638 137.298 252.994 137.182 252.327Z" fill="#7D6CCC"/>
<path d="M193.474 160.973L141.597 87.5175L136.396 91.1829L188.273 164.639L193.474 160.973Z" fill="#D67086"/>
<path d="M203.874 153.641L151.997 80.1855L146.796 83.8509L198.673 157.306L203.874 153.641Z" fill="#D67086"/>
<path d="M198.673 157.306L146.796 83.851L141.595 87.5164L193.472 160.972L198.673 157.306Z" fill="white"/>
<path d="M151.996 80.1855L151.007 78.7842L135.405 89.7805L136.395 91.1818L151.996 80.1855Z" fill="#BABCBE"/>
<path d="M151.007 78.7844L150.018 77.3831L134.416 88.3792L135.405 89.7805L151.007 78.7844Z" fill="#F7F7F7"/>
<path d="M150.017 77.3829L149.027 75.9817L133.426 86.978L134.415 88.3793L150.017 77.3829Z" fill="#BABCBE"/>
<path d="M141.713 65.6242L148.039 74.5804L132.437 85.5767L126.111 76.6204C124.907 74.915 124.43 72.8014 124.786 70.7446C125.141 68.6879 126.3 66.8564 128.007 65.6532L130.735 63.7306C132.442 62.5273 134.558 62.0509 136.617 62.406C138.676 62.7611 140.509 63.9187 141.713 65.6242Z" fill="#E8E8E8"/>
<path d="M149.028 75.9819L148.038 74.5806L132.436 85.5766L133.426 86.9779L149.028 75.9819Z" fill="#F7F7F7"/>
<path d="M203.873 153.641L188.271 164.637L209.638 178.347L203.873 153.641Z" fill="#EED5D5"/>
<path d="M208.291 172.572L204.645 175.142L209.638 178.347L208.291 172.572Z" fill="#292949"/>
<path opacity="0.25" d="M42.2363 276.51C42.2363 276.51 129.049 280.182 130.131 279.495C131.213 278.809 130.575 191.822 127.199 188.494C127.199 188.494 47.5105 271.098 42.2363 276.51Z" fill="#3B455A"/>
<path d="M127.099 276.51H37.9951C40.3783 260.867 41.5014 245.057 41.3536 229.234C41.2211 215.094 41.2827 202.877 39.2202 189.336C68.9217 189.336 97.3979 187.496 127.099 187.496C128.362 199.928 129.206 213.489 129.337 228.036C129.482 244.223 128.735 260.406 127.099 276.51Z" fill="#6D78E3"/>
<path d="M79.9511 223.922C79.3173 218.079 77.2335 211.231 71.422 208.631C64.7738 205.658 57.648 208.753 51.5567 211.591C50.7185 211.981 51.4481 213.22 52.2826 212.832C52.8844 212.551 53.5015 212.266 54.1298 211.982C55.373 225.105 52.8525 238.24 53.7817 251.369C53.6945 251.511 53.6545 251.678 53.6674 251.844C53.6803 252.011 53.7455 252.169 53.8536 252.296C53.8777 252.586 53.8929 252.876 53.921 253.166C54.0086 254.078 55.4479 254.088 55.3594 253.166C55.329 252.852 55.3122 252.538 55.2862 252.223C67.0503 248.197 81.4513 237.754 79.9511 223.922ZM69.8216 242.132C65.564 245.951 60.582 248.876 55.171 250.735C54.3522 237.614 56.8742 224.488 55.5135 211.374C60.5907 209.205 66.3054 207.541 71.4191 210.217C76.8383 213.053 78.6957 220.826 78.6512 226.465C78.6007 232.865 74.3543 238.03 69.8216 242.132Z" fill="white"/>
<path d="M90.8892 232.398C88.766 231.551 85.8903 232.584 84.1176 233.729C81.4995 235.504 79.6932 238.244 79.0951 241.348C77.8763 247.066 79.4273 254.412 86.3277 254.951C92.9754 255.471 98.0054 249.489 98.7092 243.32C99.2987 238.152 96.1741 232.56 90.8892 232.398ZM97.0771 244.424C96.047 249.14 92.2452 253.55 87.1007 253.544C80.7316 253.538 79.3955 246.8 80.482 241.73C80.9216 239.412 82.1064 237.3 83.8566 235.715C85.1633 234.59 86.7509 233.839 88.4506 233.543C88.5155 233.7 88.6339 233.828 88.7848 233.906C88.9356 233.983 89.1091 234.004 89.2743 233.966C89.6814 233.879 90.0953 233.827 90.5114 233.812C90.6738 233.887 90.8287 233.977 90.974 234.082C91.0414 234.137 91.1203 234.177 91.2049 234.198C91.2895 234.219 91.3778 234.222 91.4634 234.205C91.549 234.188 91.6298 234.153 91.7 234.101C91.7703 234.049 91.8282 233.983 91.8697 233.906C96.1634 234.719 97.9934 240.23 97.0771 244.424Z" fill="white"/>
<path d="M110.385 248.782C110.359 248.742 110.331 248.705 110.301 248.669C109.473 247.813 108.355 248.358 107.893 249.236C107.653 249.495 107.469 249.8 107.35 250.132C107.232 250.465 107.182 250.818 107.204 251.17C107.238 251.558 107.414 251.921 107.698 252.188C107.982 252.455 108.355 252.608 108.746 252.618C109.164 252.584 109.56 252.419 109.878 252.145C110.196 251.871 110.418 251.503 110.512 251.095C110.693 250.92 110.827 250.702 110.902 250.462C110.977 250.221 110.99 249.966 110.94 249.719C110.874 249.35 110.676 249.017 110.385 248.782Z" fill="white"/>
<path d="M113.679 216.342C113.008 215.152 111.152 215.165 109.953 215.102C109.763 215.104 109.581 215.181 109.447 215.315C109.312 215.449 109.236 215.63 109.233 215.82C108.987 224.273 108.924 232.728 109.042 241.184C109.043 241.29 109.068 241.394 109.114 241.489C109.161 241.584 109.228 241.667 109.311 241.732C109.394 241.798 109.491 241.844 109.594 241.867C109.697 241.891 109.804 241.89 109.907 241.867C109.923 242.049 110.007 242.219 110.143 242.341C110.28 242.463 110.458 242.528 110.641 242.523C110.824 242.519 110.998 242.444 111.128 242.316C111.258 242.187 111.334 242.013 111.34 241.831C111.494 235.56 112.039 229.306 112.971 223.103C113.181 221.728 113.413 220.357 113.657 218.988C113.806 218.152 114.131 217.144 113.679 216.342ZM110.654 216.577C110.715 216.583 110.777 216.589 110.838 216.597C110.789 216.687 110.758 216.786 110.747 216.889C110.72 217.143 110.68 217.396 110.628 217.647C110.638 217.29 110.644 216.934 110.654 216.577ZM110.54 221.381C110.643 221.457 110.766 221.501 110.894 221.507C110.741 222.279 110.577 223.005 110.503 223.568C110.515 222.839 110.526 222.11 110.54 221.381Z" fill="white"/>
<path d="M59.3378 214.942C59.2897 214.784 59.2193 214.633 59.1286 214.494C58.2449 213.282 57.0574 213.178 55.8789 212.257C55.3533 211.846 55.5077 210.138 54.1901 210.592C53.7039 210.76 52.5694 211.339 51.5361 211.706C50.0294 212.241 47.7956 212.01 46.0562 211.499C43.6691 210.843 41.3335 210.012 39.0682 209.014C34.2946 206.767 29.7387 204.085 25.4581 201.002C27.7302 197.452 28.9903 193.35 29.1027 189.138C29.2151 184.926 28.1757 180.763 26.0962 177.097C25.6985 176.31 25.1128 175.634 24.391 175.126C23.7379 174.766 23.0073 174.569 22.2614 174.551C14.4225 174.042 14.2756 181.484 13.9058 187.475C13.6605 191.234 13.6927 195.005 14.0021 198.759C14.4557 203.989 17.8379 206.994 22.3122 209.483C27.0537 212.121 31.9043 214.709 37.12 216.287C39.6549 217.054 42.1519 217.289 44.7398 217.715C47.2973 218.136 46.9668 219.25 49.1108 220.193C50.3071 220.719 51.4273 221.48 52.7055 221.776C54.9973 222.306 56.8403 220.724 58.5867 219.5C58.986 219.276 59.3166 218.947 59.5429 218.548C59.9114 217.828 59.7712 217.056 59.6597 216.285C59.5965 215.828 59.4887 215.378 59.3378 214.942Z" fill="#E5D1BD"/>
<path d="M9.93204 190.371C10.051 193.264 10.2918 196.096 10.6306 198.816C11.1355 202.87 11.8073 207.268 14.7742 210.08C15.9658 211.114 17.2919 211.983 18.7164 212.662C25.3155 216.166 31.9998 219.504 38.7692 222.675C41.2394 219.617 43.2317 216.204 44.6783 212.551C45.0831 211.527 45.447 210.391 45.0996 209.347C44.5835 207.795 42.7863 207.144 41.2123 206.697C38.6488 205.968 36.0853 205.24 33.5218 204.511C32.69 204.274 31.7791 203.979 31.3389 203.236C31.0914 202.726 30.9783 202.161 31.0101 201.595C30.7724 190.931 32.6526 182.02 35.1286 171.728C36.2192 167.192 37.3149 162.483 36.4088 157.906C34.4738 148.132 21.5949 145.588 16.6851 154.652C11.0868 164.988 9.43214 178.211 9.93204 190.371Z" fill="#75B47E"/>
<path d="M289.104 196.17C289.441 195.708 289.901 195.35 290.432 195.138C291.166 194.808 292.039 194.695 292.912 194.121C293.546 193.703 293.386 192.181 294.852 192.759C295.394 192.973 296.34 193.651 297.374 194.045C298.883 194.62 301.033 194.571 302.851 194.172C309.992 192.604 317.17 191.169 324.482 190.434C324.897 190.434 325.305 190.325 325.664 190.117C326.291 189.675 326.375 188.956 326.535 188.25C327.205 184.972 328.189 181.767 329.472 178.677C330.683 175.919 332.115 173.293 334.445 171.343C336.775 169.393 339.851 168.416 342.716 169.33C344.861 170.015 346.641 171.509 347.087 173.743C348.192 179.283 343.097 183.428 340.043 187.312C337.154 190.986 334.683 194.103 331.658 197.472C331.32 197.905 330.893 198.261 330.405 198.514C329.863 198.717 329.284 198.8 328.707 198.757C321.382 198.66 314.245 198.378 307.074 199.864C305.103 200.272 303.304 199.856 301.449 200.485C300.266 200.886 299.647 202.059 298.559 202.62C297.452 203.256 296.231 203.668 294.965 203.834C292.561 203.996 291.083 202.231 289.445 200.779C288.136 199.618 287.143 199.284 285.44 199.736C285.24 199.832 285.019 199.877 284.796 199.868C284.644 199.828 284.502 199.753 284.384 199.649C284.266 199.545 284.174 199.414 284.115 199.268C284.057 199.121 284.034 198.963 284.048 198.806C284.062 198.649 284.113 198.497 284.197 198.364C284.539 197.78 285.147 197.607 285.776 197.393C286.428 197.161 287.108 197.016 287.798 196.962C288.091 196.993 288.386 196.918 288.629 196.751C288.842 196.544 288.913 196.386 289.104 196.17Z" fill="#E5D1BD"/>
<path d="M339.96 185.293C335.834 183.733 331.509 182.78 327.488 180.892C328.947 177.394 333.164 163.164 333.891 161.46C336.662 154.958 337.198 152.156 341.017 148.722C349.172 141.39 358.856 146.252 358.458 156.659C358.026 167.957 351.967 177.654 345.403 186.392C345.254 186.589 345.051 186.739 344.818 186.823C344.503 186.886 344.177 186.844 343.888 186.704C342.605 186.199 341.262 185.785 339.96 185.293Z" fill="#AAB4B5"/>
<path d="M342.549 340.72C341.106 340.769 339.719 340.445 338.301 340.314C337.57 326.275 338.898 311.561 339.474 297.455C343.084 297.647 346.694 297.84 350.305 298.032C347.79 305.577 345.996 313.343 344.946 321.226C344.78 322.474 342.755 340.713 342.549 340.72Z" fill="#E5D1BD"/>
<path d="M337.864 337.591C336.973 337.432 336.447 337.829 335.853 338.371C335.508 338.686 335.273 339.132 334.857 339.357C334.445 339.554 333.995 339.663 333.538 339.676C330.934 339.938 324.933 339.829 328.13 344.181C331.033 348.132 338.743 346.559 343.196 345.486C343.496 345.455 343.78 345.336 344.013 345.145C344.232 344.891 344.386 344.588 344.464 344.262C344.972 342.402 345.667 340.08 343.378 339.301C342.402 338.969 341.503 339.615 340.469 339.257C339.623 338.964 338.755 337.75 337.864 337.591Z" fill="#292949"/>
<path d="M331.379 305.923C338.741 305.78 346.104 305.637 353.466 305.495C359.422 277.171 364.665 248.71 369.194 220.112C369.545 217.896 369.887 215.591 369.248 213.44C368.039 209.371 363.677 207.049 359.501 206.27C353.011 205.059 341.087 206.746 337.759 213.486C334.242 220.61 334.832 233.333 333.98 241.205C331.65 262.694 330.782 284.316 331.379 305.923Z" fill="#414446"/>
<path d="M384.654 340.72C386.097 340.769 387.484 340.445 388.902 340.314C389.633 326.275 388.305 311.561 387.729 297.455C384.119 297.647 380.509 297.84 376.898 298.032C379.413 305.577 381.207 313.343 382.257 321.226C382.423 322.474 384.448 340.713 384.654 340.72Z" fill="#E5D1BD"/>
<path d="M389.339 337.591C390.23 337.432 390.755 337.829 391.35 338.371C391.695 338.686 391.929 339.132 392.345 339.357C392.758 339.554 393.207 339.663 393.664 339.676C396.269 339.938 402.269 339.829 399.072 344.181C396.17 348.132 388.46 346.559 384.006 345.486C383.706 345.455 383.422 345.336 383.19 345.145C382.971 344.891 382.816 344.588 382.739 344.262C382.231 342.402 381.536 340.08 383.824 339.301C384.801 338.969 385.7 339.615 386.733 339.257C387.58 338.964 388.448 337.75 389.339 337.591Z" fill="#292949"/>
<path d="M395.823 305.923C388.461 305.78 381.098 305.637 373.736 305.495C367.78 277.171 362.537 248.71 358.008 220.112C357.657 217.896 357.315 215.591 357.954 213.44C359.164 209.371 363.525 207.049 367.701 206.27C374.191 205.059 386.115 206.746 389.443 213.486C392.96 220.61 392.37 233.333 393.223 241.205C395.552 262.694 396.421 284.316 395.823 305.923Z" fill="#414446"/>
<path d="M376.945 150.61C382.787 156.278 387.233 163.224 389.932 170.899C394.648 184.123 394.739 198.242 394.782 212.078C394.797 216.683 394.811 221.288 394.826 225.893C394.84 230.423 394.439 231.399 389.51 230.801C380.377 229.694 370.882 227.813 362.606 223.759C358.668 221.829 354.988 219.392 350.858 217.873C344.853 215.663 338.695 216.664 332.753 215.226C335.333 207.436 337.179 200.801 338.503 192.775C339.866 184.511 341.105 175.496 343.103 167.343C344.302 162.451 346.531 157.88 348.799 153.381C350.323 150.358 351.937 147.263 354.525 145.077C362.323 138.494 371.065 145.02 376.945 150.61Z" fill="#F2A222"/>
<path d="M355.647 131.211C356.762 133.645 358.584 135.674 360.071 137.9C361.518 140.066 362.038 142.026 362.422 144.538C362.7 146.352 363.349 147.77 365.536 148.081C369.661 148.666 368.482 145.261 369.419 142.784C370.49 139.952 372.774 137.715 374.37 135.188C378.983 127.885 377.667 113.45 368.079 110.37C357.597 107.002 352.264 123.824 355.647 131.211Z" fill="#E5D1BD"/>
<path d="M372.357 124.144C373.547 124.192 374.856 124.286 375.739 125.084C376.621 125.883 376.525 127.624 375.36 127.813C374.304 127.983 372.936 126.882 372.291 127.686C371.914 128.156 372.245 128.843 372.531 129.392C373.627 131.48 373.95 133.887 373.446 136.19C373.88 136.592 374.558 136.175 374.94 135.756C376.833 133.68 378.308 131.259 379.285 128.626C379.676 129.27 380.226 129.802 380.883 130.171C380.488 129.186 380.738 128.108 380.982 127.102C381.877 123.408 382.487 119.08 379.905 116.061C378.523 114.446 376.422 113.517 374.309 113.126C372.191 112.817 370.045 112.75 367.913 112.927C367.001 112.968 365.879 113.164 365.66 114.006C367.658 114.807 369.726 116.366 370.726 118.256C371.033 118.837 372.236 124.139 372.357 124.144Z" fill="#292949"/>
<path d="M368.135 115.268C368.207 115.321 368.279 115.374 368.349 115.427C369.255 116.116 370.104 116.954 371.2 117.259C372.78 117.699 374.478 116.939 376.033 117.476C377.772 118.077 378.915 120.154 380.184 121.384C382.283 123.397 384.83 124.885 387.616 125.724C389.032 126.155 390.495 126.416 391.973 126.501C392.709 126.605 393.456 126.601 394.191 126.49C395.067 126.255 395.036 125.857 394.103 125.558C391.177 124.621 390.259 120.515 390.48 117.793C390.655 115.644 391.397 113.398 390.576 111.405C389.95 109.881 388.604 109.095 387.303 108.224C385.869 107.263 384.313 107.522 382.684 107.059C380.985 106.577 379.601 105.241 377.867 104.9C376.037 104.539 374.207 105.35 372.375 105.706C370.857 105.999 369.294 105.98 367.783 105.649C366.434 105.353 365.117 104.807 363.736 104.82C361.699 104.839 359.826 106.109 358.637 107.761C356.956 110.099 355.869 114.099 356.461 117.177C356.369 116.7 357.978 114.969 358.309 114.597C359.008 113.811 359.851 113.075 360.918 112.948C363.332 112.66 366.194 113.86 368.135 115.268Z" fill="#292949"/>
<path d="M318.764 257.535L318.206 263.654C318.025 265.641 319.319 267.384 321.096 267.545L335.467 268.851C337.244 269.013 338.831 267.533 339.012 265.545L339.57 259.426L318.764 257.535Z" fill="#B1B1B2"/>
<path d="M371.497 179.489C373.457 157.963 359.445 139.094 340.199 137.344C320.953 135.595 303.762 151.628 301.802 173.154C301.106 180.433 302.305 187.767 305.282 194.447L305.281 194.446C313.322 213.502 314.177 228.927 314.177 228.927L331.712 230.521L349.248 232.115C349.248 232.115 352.875 217.097 364.228 199.805L364.226 199.804C368.361 193.772 370.866 186.774 371.497 179.489Z" fill="#B56084"/>
<path d="M313.773 228.891L311.406 254.884C311.33 255.368 311.45 255.863 311.737 256.261C312.025 256.658 312.459 256.926 312.943 257.006L345.389 259.955C345.88 259.964 346.355 259.779 346.71 259.44C347.065 259.101 347.271 258.635 347.285 258.145L349.652 232.152L313.773 228.891Z" fill="#DDDDDD"/>
<path opacity="0.2" d="M371.543 172.135C360.929 190.686 341.016 219.025 314.171 228.82C314.175 228.884 314.178 228.927 314.178 228.927L331.713 230.521L349.249 232.115C349.249 232.115 352.876 217.097 364.228 199.805L364.227 199.804C368.362 193.772 370.866 186.774 371.497 179.489C371.719 177.044 371.734 174.584 371.543 172.135Z" fill="#3B3387"/>
<path opacity="0.5" d="M307.205 176.878C308.916 158.084 323.925 144.087 340.727 145.615C350.548 146.507 358.806 152.508 363.633 161.092C359.309 150.413 350.088 142.651 338.807 141.625C322.005 140.098 306.996 154.095 305.285 172.889C304.566 180.277 306.106 187.709 309.702 194.205C307.501 188.71 306.645 182.77 307.205 176.878Z" fill="white"/>
<path d="M324.937 229.905L325.26 179.628L330.643 185.634L336.604 177.007L341.004 186.284L347.263 181.581L338.489 231.137L340.289 231.301L349.862 177.228L341.68 183.375L336.907 173.31L330.492 182.595L323.489 174.783L323.137 229.742L324.937 229.905Z" fill="#F6F7F7"/>
<path d="M323.169 224.728L323.137 229.742L324.937 229.905L324.976 223.712C324.378 224.059 323.775 224.397 323.169 224.728Z" fill="#EDECED"/>
<path d="M342.102 210.733L338.489 231.137L340.289 231.301L344.308 208.598C343.583 209.318 342.847 210.03 342.102 210.733Z" fill="#EDECED"/>
<path d="M313.185 235.345L312.748 240.145L348.627 243.406L349.064 238.606L313.185 235.345Z" fill="#C4C4C4"/>
<path d="M312.252 245.596L311.814 250.396L347.693 253.657L348.13 248.857L312.252 245.596Z" fill="#C4C4C4"/>
<path d="M331.922 247.384L348.13 248.857L348.627 243.406L338.628 242.497C336.494 244.261 334.255 245.893 331.922 247.384Z" fill="#C2C2C4"/>
<path d="M349.064 238.606L349.652 232.152L349.088 232.1C348.263 233.299 346.278 235.461 343.511 238.101L349.064 238.606Z" fill="#C2C2C4"/>
<path d="M312.943 257.006L345.389 259.955C345.88 259.964 346.355 259.779 346.71 259.44C347.065 259.101 347.271 258.635 347.285 258.145L347.694 253.657L324.266 251.528C320.179 253.388 315.858 254.684 311.422 255.38C311.453 255.783 311.62 256.164 311.897 256.46C312.173 256.755 312.542 256.948 312.943 257.006Z" fill="#C2C2C4"/>
<path d="M338.629 242.497L348.627 243.406L349.065 238.606L343.511 238.101C341.872 239.704 340.244 241.17 338.629 242.497Z" fill="#B1B1B2"/>
<path d="M324.266 251.528L347.693 253.657L348.13 248.857L331.922 247.384C329.474 248.95 326.916 250.335 324.266 251.528Z" fill="#B1B1B2"/>
<path d="M339.23 263.143C334.787 267.133 326.915 267.747 324.324 267.839L335.466 268.851C337.243 269.013 338.83 267.533 339.012 265.545L339.23 263.143Z" fill="#9E9E9E"/>
<path d="M347.821 207.481C347.863 207.343 347.925 207.212 348.004 207.092C348.775 206.042 349.807 205.955 350.833 205.158C351.29 204.803 351.161 203.32 352.304 203.717C352.726 203.864 353.71 204.37 354.606 204.692C355.913 205.161 357.854 204.967 359.366 204.528C361.441 203.964 363.472 203.249 365.442 202.389C367.437 201.469 369.383 200.444 371.283 199.342C372.866 198.424 375.378 197.371 376.575 195.974C378.599 193.61 376.255 187.85 375.988 184.898C375.71 181.822 375.98 172.761 380.136 172.505C386.946 172.085 387.052 178.549 387.356 183.753C387.559 187.018 387.52 190.294 387.241 193.553C386.832 198.094 383.886 200.694 379.993 202.844C375.868 205.122 371.648 207.356 367.114 208.711C364.91 209.37 362.741 209.567 360.492 209.93C358.269 210.289 358.553 211.257 356.688 212.07C355.648 212.523 354.673 213.181 353.562 213.435C351.57 213.888 349.974 212.509 348.461 211.442C348.114 211.245 347.828 210.959 347.633 210.612C347.393 209.984 347.36 209.295 347.538 208.646C347.594 208.25 347.689 207.859 347.821 207.481Z" fill="#E5D1BD"/>
<path d="M387.23 185.511C383.38 186.257 379.531 187.002 375.681 187.748C375.928 187.7 371.226 170.504 370.981 169.471C370.047 165.528 369.109 161.435 369.909 157.462C371.617 148.979 375.71 146.892 380.867 155.805C385.735 164.218 393.365 174.29 391.854 183.865C391.838 184.076 391.768 184.279 391.651 184.455C391.441 184.659 391.168 184.782 390.877 184.805C389.661 185.041 388.445 185.276 387.23 185.511Z" fill="#FDB94C"/>
</svg>
