<svg xmlns="http://www.w3.org/2000/svg" width="128" height="131" fill="none" viewBox="0 0 128 131">
    <path fill="#707ACF" fill-opacity=".7" fill-rule="evenodd" d="M2.119 47.39A63.604 63.604 0 0 1 14.35 23.402l.002.005A63.569 63.569 0 0 1 39.681 4.685 63.658 63.658 0 0 1 70.9.414a63.973 63.973 0 0 1 29.501 11.22 64.225 64.225 0 0 1 27.251 54.867 63.892 63.892 0 0 1-8.893 30.27 63.59 63.59 0 0 1-52.514 31.114l.186.147L9.883 131 .703 74.182l.186.148a63.89 63.89 0 0 1 1.23-26.94zm24.907 9.279a34.423 34.423 0 0 1 6.588-13.06l.001.002a34.128 34.128 0 0 1 13.71-10.157 34.302 34.302 0 0 1 16.941-2.26 34.919 34.919 0 0 1 16.044 6.19A35.415 35.415 0 0 1 91.544 50.51a35.334 35.334 0 0 1 3.687 16.867 34.748 34.748 0 0 1-4.761 16.494 34.2 34.2 0 0 1-12.047 12.1 34.194 34.194 0 0 1-16.396 4.757l.101.081-30.698 1.491-5.112-31.019.101.081a34.982 34.982 0 0 1 .607-14.694z" clip-rule="evenodd"/>
</svg>
